<?xml version="1.0" encoding="utf-8"?>
<!-- Generator: Adobe Illustrator 16.0.0, SVG Export Plug-In . SVG Version: 6.00 Build 0)  -->
<!DOCTYPE svg PUBLIC "-//W3C//DTD SVG 1.1//EN" "http://www.w3.org/Graphics/SVG/1.1/DTD/svg11.dtd">
<svg version="1.1" xmlns="http://www.w3.org/2000/svg" xmlns:xlink="http://www.w3.org/1999/xlink" x="0px" y="0px" width="900px"
	 height="900px" viewBox="0 0 900 900" enable-background="new 0 0 900 900" xml:space="preserve">
<g id="Layer_1">
	<rect y="-1" fill="#F27121" width="900" height="900"/>
	<g>
		<path fill="#FBF522" d="M261.451,529.696h22.14c2.759,0,5.324,0.33,7.695,0.989c2.37,0.661,4.41,1.636,6.12,2.926
			c1.71,1.291,3.06,2.94,4.05,4.949c0.99,2.012,1.485,4.365,1.485,7.065c0,3.66-1.021,6.646-3.06,8.955
			c-2.041,2.311-4.68,4.005-7.92,5.085v0.18c1.919,0.121,3.719,0.616,5.4,1.485c1.679,0.87,3.134,2.011,4.365,3.42
			c1.229,1.41,2.205,3.046,2.925,4.905c0.72,1.86,1.08,3.87,1.08,6.029c0,2.881-0.585,5.416-1.755,7.605
			c-1.17,2.191-2.776,4.036-4.815,5.535c-2.041,1.5-4.41,2.641-7.11,3.42c-2.7,0.78-5.611,1.17-8.73,1.17h-21.87V529.696z
			 M270.091,556.156h11.79c1.62,0,3.15-0.165,4.59-0.495c1.44-0.329,2.7-0.885,3.78-1.665c1.08-0.779,1.935-1.77,2.565-2.97
			c0.63-1.2,0.945-2.669,0.945-4.41c0-2.521-0.81-4.71-2.43-6.57c-1.62-1.859-4.171-2.79-7.65-2.79h-13.59V556.156z
			 M270.091,585.856h12.69c1.319,0,2.774-0.136,4.365-0.405c1.589-0.271,3.074-0.811,4.455-1.62c1.38-0.81,2.55-1.904,3.51-3.285
			c0.959-1.38,1.44-3.209,1.44-5.49c0-3.779-1.23-6.614-3.69-8.505c-2.461-1.89-5.791-2.835-9.99-2.835h-12.78V585.856z"/>
		<path fill="#FBF522" d="M313.38,572.086c0-3.119,0.585-6.03,1.755-8.729c1.17-2.7,2.774-5.07,4.815-7.11
			c2.039-2.039,4.439-3.646,7.2-4.815c2.759-1.17,5.729-1.755,8.91-1.755c3.18,0,6.149,0.585,8.91,1.755
			c2.759,1.17,5.159,2.776,7.2,4.815c2.039,2.04,3.645,4.41,4.815,7.11c1.17,2.699,1.755,5.61,1.755,8.729
			c0,3.12-0.585,6.046-1.755,8.775c-1.17,2.73-2.776,5.101-4.815,7.109c-2.041,2.012-4.441,3.601-7.2,4.771
			c-2.761,1.17-5.73,1.755-8.91,1.755c-3.181,0-6.151-0.585-8.91-1.755c-2.76-1.17-5.161-2.759-7.2-4.771
			c-2.041-2.009-3.645-4.379-4.815-7.109C313.965,578.132,313.38,575.206,313.38,572.086z M322.021,572.086
			c0,2.16,0.329,4.155,0.99,5.985c0.659,1.831,1.589,3.391,2.79,4.68c1.199,1.291,2.669,2.311,4.41,3.06
			c1.74,0.751,3.69,1.125,5.85,1.125s4.109-0.374,5.85-1.125c1.739-0.749,3.209-1.769,4.41-3.06c1.199-1.289,2.129-2.849,2.79-4.68
			c0.66-1.83,0.99-3.825,0.99-5.985s-0.331-4.154-0.99-5.985c-0.661-1.829-1.59-3.389-2.79-4.68c-1.201-1.289-2.671-2.309-4.41-3.06
			c-1.741-0.75-3.69-1.125-5.85-1.125s-4.11,0.375-5.85,1.125c-1.741,0.751-3.21,1.771-4.41,3.06
			c-1.201,1.291-2.131,2.851-2.79,4.68C322.35,567.932,322.021,569.926,322.021,572.086z"/>
		<path fill="#FBF522" d="M366.21,572.086c0-3.119,0.585-6.03,1.755-8.729c1.17-2.7,2.774-5.07,4.815-7.11
			c2.039-2.039,4.439-3.646,7.2-4.815c2.759-1.17,5.729-1.755,8.91-1.755c3.18,0,6.149,0.585,8.91,1.755
			c2.759,1.17,5.159,2.776,7.2,4.815c2.039,2.04,3.645,4.41,4.815,7.11c1.17,2.699,1.755,5.61,1.755,8.729
			c0,3.12-0.585,6.046-1.755,8.775c-1.17,2.73-2.776,5.101-4.815,7.109c-2.041,2.012-4.441,3.601-7.2,4.771
			c-2.761,1.17-5.73,1.755-8.91,1.755c-3.181,0-6.151-0.585-8.91-1.755c-2.76-1.17-5.161-2.759-7.2-4.771
			c-2.041-2.009-3.645-4.379-4.815-7.109C366.795,578.132,366.21,575.206,366.21,572.086z M374.85,572.086
			c0,2.16,0.329,4.155,0.99,5.985c0.659,1.831,1.589,3.391,2.79,4.68c1.199,1.291,2.669,2.311,4.41,3.06
			c1.74,0.751,3.69,1.125,5.85,1.125s4.109-0.374,5.85-1.125c1.739-0.749,3.209-1.769,4.41-3.06c1.199-1.289,2.129-2.849,2.79-4.68
			c0.66-1.83,0.99-3.825,0.99-5.985s-0.331-4.154-0.99-5.985c-0.661-1.829-1.59-3.389-2.79-4.68c-1.201-1.289-2.671-2.309-4.41-3.06
			c-1.741-0.75-3.69-1.125-5.85-1.125s-4.11,0.375-5.85,1.125c-1.741,0.751-3.21,1.771-4.41,3.06
			c-1.201,1.291-2.131,2.851-2.79,4.68C375.179,567.932,374.85,569.926,374.85,572.086z"/>
		<path fill="#FBF522" d="M419.759,525.376h8.1v43.92l18.36-18.45h11.25l-19.89,19.351l21.601,23.22h-11.521l-19.8-22.14v22.14h-8.1
			V525.376z"/>
		<path fill="#FFFFFF" d="M466.74,550.756h8.1v6.12h0.18c1.561-2.279,3.705-4.05,6.436-5.31c2.729-1.261,5.535-1.891,8.414-1.891
			c3.299,0,6.285,0.571,8.955,1.71c2.67,1.141,4.951,2.731,6.84,4.771c1.891,2.04,3.344,4.425,4.365,7.154
			c1.02,2.731,1.531,5.656,1.531,8.775c0,3.181-0.512,6.136-1.531,8.865c-1.021,2.73-2.475,5.101-4.365,7.109
			c-1.889,2.012-4.17,3.586-6.84,4.726c-2.67,1.139-5.656,1.71-8.955,1.71c-3.059,0-5.939-0.646-8.639-1.936
			c-2.701-1.289-4.771-3.044-6.211-5.265h-0.18v31.5h-8.1V550.756z M488.879,557.236c-2.16,0-4.109,0.375-5.85,1.125
			c-1.74,0.751-3.211,1.771-4.41,3.06c-1.201,1.291-2.131,2.851-2.789,4.68c-0.662,1.831-0.99,3.825-0.99,5.985
			s0.328,4.155,0.99,5.985c0.658,1.831,1.588,3.391,2.789,4.68c1.199,1.291,2.67,2.311,4.41,3.06c1.74,0.751,3.689,1.125,5.85,1.125
			s4.109-0.374,5.852-1.125c1.738-0.749,3.209-1.769,4.408-3.06c1.201-1.289,2.131-2.849,2.791-4.68
			c0.66-1.83,0.99-3.825,0.99-5.985s-0.33-4.154-0.99-5.985c-0.66-1.829-1.59-3.389-2.791-4.68c-1.199-1.289-2.67-2.309-4.408-3.06
			C492.988,557.611,491.039,557.236,488.879,557.236z"/>
		<path fill="#FFFFFF" d="M528.119,575.056c0,1.86,0.404,3.556,1.215,5.085c0.809,1.53,1.873,2.835,3.195,3.915
			c1.318,1.08,2.848,1.921,4.59,2.521c1.738,0.601,3.539,0.899,5.398,0.899c2.521,0,4.711-0.585,6.57-1.755s3.57-2.714,5.131-4.635
			l6.119,4.68c-4.5,5.821-10.799,8.73-18.9,8.73c-3.359,0-6.404-0.571-9.135-1.71c-2.73-1.14-5.039-2.714-6.93-4.726
			c-1.889-2.009-3.346-4.379-4.365-7.109c-1.02-2.729-1.529-5.685-1.529-8.865c0-3.18,0.555-6.134,1.664-8.865
			c1.111-2.729,2.641-5.099,4.592-7.109c1.947-2.01,4.273-3.585,6.975-4.726c2.699-1.139,5.639-1.71,8.82-1.71
			c3.779,0,6.975,0.661,9.584,1.98c2.609,1.32,4.754,3.046,6.436,5.175c1.678,2.131,2.895,4.531,3.645,7.2
			c0.75,2.67,1.125,5.386,1.125,8.145v2.88H528.119z M553.678,568.576c-0.061-1.8-0.346-3.449-0.854-4.95
			c-0.512-1.499-1.275-2.804-2.295-3.915c-1.021-1.109-2.295-1.979-3.826-2.61c-1.529-0.63-3.316-0.944-5.355-0.944
			c-1.979,0-3.795,0.375-5.443,1.125c-1.652,0.751-3.047,1.726-4.186,2.925c-1.141,1.201-2.025,2.535-2.656,4.005
			c-0.629,1.471-0.943,2.925-0.943,4.365H553.678z"/>
		<path fill="#FFFFFF" d="M572.309,550.756h8.1v6.57h0.182c0.539-1.14,1.26-2.174,2.158-3.105c0.9-0.93,1.904-1.724,3.016-2.385
			c1.109-0.659,2.324-1.184,3.645-1.575c1.32-0.39,2.641-0.585,3.961-0.585c1.318,0,2.52,0.181,3.6,0.54l-0.359,8.73
			c-0.662-0.181-1.32-0.329-1.98-0.45c-0.66-0.119-1.32-0.18-1.98-0.18c-3.959,0-6.99,1.11-9.09,3.33s-3.15,5.67-3.15,10.35v21.42
			h-8.1V550.756z"/>
		<path fill="#FFFFFF" d="M605.879,525.376h8.1v43.92l18.359-18.45h11.25l-19.889,19.351l21.6,23.22h-11.521l-19.799-22.14v22.14
			h-8.1V525.376z"/>
	</g>
	<g>
		<path fill="#FFFFFF" d="M154.608,637.516h21.73v5.281h-15.892v8.062h15.058v5.282h-15.058v8.896h16.726v5.282h-22.564V637.516z"/>
		<path fill="#FFFFFF" d="M191.582,661.284h-11.444v-4.726h11.444V661.284z"/>
		<path fill="#FFFFFF" d="M195.612,635.291h5.56v15.614h0.139c0.278-0.37,0.633-0.748,1.066-1.135
			c0.432-0.386,0.957-0.749,1.575-1.089c0.618-0.34,1.328-0.617,2.131-0.834c0.803-0.216,1.729-0.324,2.78-0.324
			c1.576,0,3.027,0.301,4.355,0.903c1.328,0.603,2.463,1.429,3.405,2.479c0.942,1.051,1.675,2.287,2.201,3.707
			c0.525,1.421,0.788,2.95,0.788,4.587c0,1.638-0.248,3.167-0.741,4.587c-0.495,1.421-1.221,2.657-2.178,3.707
			c-0.958,1.051-2.116,1.876-3.475,2.479c-1.359,0.603-2.889,0.903-4.587,0.903c-1.575,0-3.043-0.309-4.402-0.927
			c-1.359-0.617-2.44-1.605-3.243-2.965h-0.093v3.336h-5.282V635.291z M214.052,659.199c0-0.864-0.147-1.698-0.44-2.502
			c-0.294-0.803-0.727-1.513-1.297-2.131c-0.572-0.618-1.259-1.112-2.062-1.483c-0.804-0.37-1.714-0.556-2.734-0.556
			c-1.019,0-1.931,0.186-2.733,0.556c-0.804,0.371-1.491,0.865-2.062,1.483c-0.572,0.618-1.004,1.328-1.297,2.131
			c-0.294,0.804-0.44,1.638-0.44,2.502c0,0.865,0.146,1.699,0.44,2.502c0.293,0.804,0.726,1.514,1.297,2.132
			c0.571,0.618,1.258,1.111,2.062,1.482c0.803,0.37,1.714,0.556,2.733,0.556c1.02,0,1.93-0.186,2.734-0.556
			c0.803-0.371,1.49-0.864,2.062-1.482c0.571-0.618,1.003-1.328,1.297-2.132C213.905,660.898,214.052,660.064,214.052,659.199z"/>
		<path fill="#FFFFFF" d="M222.994,659.199c0-1.761,0.316-3.359,0.95-4.795c0.633-1.437,1.49-2.665,2.572-3.684
			c1.081-1.02,2.363-1.808,3.846-2.363c1.482-0.556,3.058-0.834,4.726-0.834s3.243,0.278,4.726,0.834
			c1.483,0.556,2.764,1.344,3.846,2.363c1.081,1.019,1.938,2.247,2.572,3.684c0.633,1.436,0.95,3.034,0.95,4.795
			s-0.317,3.359-0.95,4.796c-0.633,1.437-1.491,2.664-2.572,3.684c-1.082,1.019-2.363,1.807-3.846,2.362
			c-1.482,0.557-3.058,0.834-4.726,0.834s-3.244-0.277-4.726-0.834c-1.483-0.556-2.765-1.344-3.846-2.362
			c-1.082-1.02-1.939-2.247-2.572-3.684C223.311,662.559,222.994,660.96,222.994,659.199z M228.554,659.199
			c0,0.865,0.146,1.699,0.44,2.502c0.293,0.804,0.725,1.514,1.297,2.132c0.571,0.618,1.258,1.111,2.062,1.482
			c0.803,0.37,1.714,0.556,2.734,0.556c1.019,0,1.93-0.186,2.733-0.556c0.803-0.371,1.49-0.864,2.062-1.482
			c0.571-0.618,1.003-1.328,1.297-2.132c0.293-0.803,0.44-1.637,0.44-2.502c0-0.864-0.147-1.698-0.44-2.502
			c-0.294-0.803-0.726-1.513-1.297-2.131c-0.572-0.618-1.259-1.112-2.062-1.483c-0.804-0.37-1.714-0.556-2.733-0.556
			c-1.02,0-1.931,0.186-2.734,0.556c-0.804,0.371-1.491,0.865-2.062,1.483c-0.572,0.618-1.004,1.328-1.297,2.131
			C228.701,657.501,228.554,658.335,228.554,659.199z"/>
		<path fill="#FFFFFF" d="M250.562,659.199c0-1.761,0.316-3.359,0.95-4.795c0.633-1.437,1.49-2.665,2.572-3.684
			c1.081-1.02,2.363-1.808,3.846-2.363c1.482-0.556,3.058-0.834,4.726-0.834s3.243,0.278,4.726,0.834
			c1.483,0.556,2.764,1.344,3.846,2.363c1.081,1.019,1.938,2.247,2.572,3.684c0.633,1.436,0.95,3.034,0.95,4.795
			s-0.317,3.359-0.95,4.796c-0.633,1.437-1.491,2.664-2.572,3.684c-1.082,1.019-2.363,1.807-3.846,2.362
			c-1.482,0.557-3.058,0.834-4.726,0.834s-3.244-0.277-4.726-0.834c-1.483-0.556-2.765-1.344-3.846-2.362
			c-1.082-1.02-1.939-2.247-2.572-3.684C250.878,662.559,250.562,660.96,250.562,659.199z M256.122,659.199
			c0,0.865,0.146,1.699,0.44,2.502c0.293,0.804,0.725,1.514,1.297,2.132c0.571,0.618,1.258,1.111,2.062,1.482
			c0.803,0.37,1.714,0.556,2.734,0.556c1.019,0,1.93-0.186,2.733-0.556c0.803-0.371,1.49-0.864,2.062-1.482
			c0.571-0.618,1.003-1.328,1.297-2.132c0.293-0.803,0.44-1.637,0.44-2.502c0-0.864-0.147-1.698-0.44-2.502
			c-0.294-0.803-0.726-1.513-1.297-2.131c-0.572-0.618-1.259-1.112-2.062-1.483c-0.804-0.37-1.714-0.556-2.733-0.556
			c-1.02,0-1.931,0.186-2.734,0.556c-0.804,0.371-1.491,0.865-2.062,1.483c-0.572,0.618-1.004,1.328-1.297,2.131
			C256.269,657.501,256.122,658.335,256.122,659.199z"/>
		<path fill="#FFFFFF" d="M279.242,635.291h5.56V657.3l8.572-9.221h7.135l-9.544,10.101l10.147,12.14h-7.367l-8.85-11.352h-0.093
			v11.352h-5.56V635.291z"/>
		<path fill="#FFFFFF" d="M316.446,635.291h5.56v15.614h0.139c0.278-0.37,0.633-0.748,1.066-1.135
			c0.432-0.386,0.957-0.749,1.575-1.089c0.618-0.34,1.328-0.617,2.131-0.834c0.803-0.216,1.729-0.324,2.78-0.324
			c1.576,0,3.027,0.301,4.355,0.903c1.328,0.603,2.463,1.429,3.405,2.479c0.942,1.051,1.675,2.287,2.201,3.707
			c0.525,1.421,0.788,2.95,0.788,4.587c0,1.638-0.248,3.167-0.741,4.587c-0.495,1.421-1.221,2.657-2.178,3.707
			c-0.958,1.051-2.116,1.876-3.475,2.479c-1.359,0.603-2.889,0.903-4.587,0.903c-1.575,0-3.043-0.309-4.402-0.927
			c-1.359-0.617-2.44-1.605-3.243-2.965h-0.093v3.336h-5.282V635.291z M334.887,659.199c0-0.864-0.147-1.698-0.44-2.502
			c-0.294-0.803-0.727-1.513-1.297-2.131c-0.572-0.618-1.259-1.112-2.062-1.483c-0.804-0.37-1.714-0.556-2.734-0.556
			c-1.019,0-1.931,0.186-2.733,0.556c-0.804,0.371-1.491,0.865-2.062,1.483c-0.572,0.618-1.004,1.328-1.297,2.131
			c-0.294,0.804-0.44,1.638-0.44,2.502c0,0.865,0.146,1.699,0.44,2.502c0.293,0.804,0.726,1.514,1.297,2.132
			c0.571,0.618,1.258,1.111,2.062,1.482c0.803,0.37,1.714,0.556,2.733,0.556c1.02,0,1.93-0.186,2.734-0.556
			c0.803-0.371,1.49-0.864,2.062-1.482c0.571-0.618,1.003-1.328,1.297-2.132C334.74,660.898,334.887,660.064,334.887,659.199z"/>
		<path fill="#FFFFFF" d="M358.841,667.262h-0.139c-0.804,1.267-1.823,2.186-3.058,2.757c-1.236,0.571-2.595,0.856-4.077,0.856
			c-1.02,0-2.016-0.139-2.989-0.417c-0.973-0.277-1.838-0.694-2.594-1.251c-0.757-0.556-1.367-1.251-1.831-2.085
			c-0.463-0.834-0.695-1.807-0.695-2.919c0-1.204,0.216-2.231,0.649-3.081c0.432-0.849,1.011-1.56,1.737-2.131
			c0.726-0.571,1.567-1.027,2.525-1.367s1.954-0.595,2.989-0.765c1.035-0.169,2.077-0.278,3.127-0.324
			c1.05-0.046,2.039-0.069,2.965-0.069h1.39v-0.603c0-1.39-0.479-2.433-1.437-3.127c-0.958-0.695-2.178-1.043-3.66-1.043
			c-1.174,0-2.271,0.208-3.29,0.625c-1.02,0.418-1.9,0.981-2.641,1.691l-2.919-2.919c1.235-1.266,2.679-2.178,4.332-2.733
			c1.652-0.556,3.359-0.834,5.12-0.834c1.576,0,2.903,0.178,3.985,0.533c1.081,0.355,1.977,0.811,2.688,1.366
			c0.71,0.557,1.258,1.197,1.645,1.923c0.386,0.727,0.664,1.46,0.834,2.201c0.169,0.741,0.27,1.459,0.301,2.154
			c0.03,0.695,0.046,1.306,0.046,1.83v12.788h-5.004V667.262z M358.517,660.357h-1.159c-0.772,0-1.638,0.031-2.595,0.093
			c-0.958,0.062-1.861,0.209-2.71,0.44c-0.85,0.231-1.568,0.572-2.154,1.02c-0.587,0.448-0.88,1.073-0.88,1.876
			c0,0.525,0.116,0.966,0.348,1.32c0.231,0.355,0.533,0.657,0.903,0.904s0.788,0.425,1.251,0.532
			c0.463,0.108,0.927,0.162,1.39,0.162c1.915,0,3.328-0.455,4.239-1.366c0.911-0.911,1.367-2.155,1.367-3.73V660.357z"/>
		<path fill="#FFFFFF" d="M369.126,648.079h5.56v3.521h0.093c0.618-1.297,1.498-2.301,2.641-3.012
			c1.143-0.71,2.456-1.065,3.938-1.065c0.339,0,0.672,0.031,0.996,0.093c0.324,0.062,0.656,0.139,0.996,0.231v5.375
			c-0.463-0.123-0.919-0.224-1.367-0.302c-0.448-0.076-0.889-0.115-1.321-0.115c-1.297,0-2.34,0.239-3.127,0.718
			c-0.788,0.479-1.39,1.027-1.807,1.645c-0.417,0.618-0.695,1.236-0.834,1.854c-0.139,0.618-0.208,1.082-0.208,1.391v11.907h-5.56
			V648.079z"/>
		<path fill="#FFFFFF" d="M409.343,648.079v20.248c0,2.008-0.248,3.822-0.742,5.444c-0.494,1.621-1.259,2.995-2.293,4.123
			c-1.035,1.128-2.34,2-3.915,2.618c-1.575,0.617-3.445,0.927-5.606,0.927c-2.07,0-4.031-0.263-5.884-0.788
			s-3.568-1.482-5.143-2.872l3.336-4.541c1.112,1.02,2.271,1.807,3.475,2.363c1.205,0.556,2.595,0.834,4.17,0.834
			c1.328,0,2.448-0.186,3.359-0.557c0.911-0.37,1.637-0.88,2.178-1.528c0.54-0.648,0.927-1.43,1.158-2.34
			c0.231-0.912,0.348-1.923,0.348-3.035v-1.622h-0.093c-0.804,1.082-1.869,1.893-3.197,2.433s-2.687,0.812-4.077,0.812
			c-1.668,0-3.182-0.302-4.541-0.904c-1.36-0.602-2.525-1.413-3.498-2.432c-0.973-1.02-1.723-2.225-2.248-3.614
			c-0.525-1.39-0.788-2.873-0.788-4.448c0-1.637,0.247-3.166,0.741-4.587c0.494-1.42,1.22-2.656,2.178-3.707
			c0.957-1.05,2.108-1.876,3.452-2.479c1.343-0.603,2.88-0.903,4.61-0.903c1.576,0,3.042,0.309,4.402,0.927
			c1.359,0.618,2.439,1.606,3.243,2.965h0.093v-3.336H409.343z M397.482,652.527c-0.989,0-1.885,0.162-2.688,0.486
			c-0.804,0.324-1.491,0.772-2.062,1.344c-0.572,0.572-1.019,1.267-1.344,2.085c-0.324,0.819-0.486,1.723-0.486,2.711
			c0,0.896,0.162,1.729,0.486,2.502c0.325,0.772,0.78,1.452,1.367,2.038c0.586,0.588,1.281,1.051,2.085,1.391
			c0.803,0.34,1.668,0.51,2.595,0.51c1.019,0,1.938-0.17,2.757-0.51c0.818-0.34,1.513-0.795,2.085-1.367
			c0.571-0.571,1.011-1.258,1.32-2.062c0.309-0.803,0.463-1.668,0.463-2.595c0-1.946-0.587-3.521-1.761-4.727
			C401.126,653.13,399.521,652.527,397.482,652.527z"/>
		<path fill="#FFFFFF" d="M428.849,667.262h-0.139c-0.804,1.267-1.823,2.186-3.058,2.757c-1.236,0.571-2.595,0.856-4.077,0.856
			c-1.02,0-2.016-0.139-2.989-0.417c-0.973-0.277-1.838-0.694-2.594-1.251c-0.757-0.556-1.367-1.251-1.831-2.085
			c-0.463-0.834-0.695-1.807-0.695-2.919c0-1.204,0.216-2.231,0.649-3.081c0.432-0.849,1.011-1.56,1.737-2.131
			c0.726-0.571,1.567-1.027,2.525-1.367s1.954-0.595,2.989-0.765c1.035-0.169,2.077-0.278,3.127-0.324
			c1.05-0.046,2.039-0.069,2.965-0.069h1.39v-0.603c0-1.39-0.479-2.433-1.437-3.127c-0.958-0.695-2.178-1.043-3.66-1.043
			c-1.174,0-2.271,0.208-3.29,0.625c-1.02,0.418-1.9,0.981-2.641,1.691l-2.919-2.919c1.235-1.266,2.679-2.178,4.332-2.733
			c1.652-0.556,3.359-0.834,5.12-0.834c1.576,0,2.903,0.178,3.985,0.533c1.081,0.355,1.977,0.811,2.688,1.366
			c0.71,0.557,1.258,1.197,1.645,1.923c0.386,0.727,0.664,1.46,0.834,2.201c0.169,0.741,0.271,1.459,0.302,2.154
			c0.03,0.695,0.046,1.306,0.046,1.83v12.788h-5.004V667.262z M428.525,660.357h-1.159c-0.772,0-1.638,0.031-2.595,0.093
			c-0.958,0.062-1.861,0.209-2.71,0.44c-0.85,0.231-1.568,0.572-2.154,1.02c-0.587,0.448-0.88,1.073-0.88,1.876
			c0,0.525,0.116,0.966,0.348,1.32c0.231,0.355,0.533,0.657,0.903,0.904s0.788,0.425,1.251,0.532
			c0.463,0.108,0.927,0.162,1.39,0.162c1.915,0,3.328-0.455,4.239-1.366c0.911-0.911,1.367-2.155,1.367-3.73V660.357z"/>
		<path fill="#FFFFFF" d="M438.44,640.527c0-0.896,0.331-1.676,0.996-2.34c0.663-0.664,1.506-0.996,2.524-0.996
			c1.02,0,1.877,0.316,2.572,0.949c0.694,0.634,1.042,1.43,1.042,2.387s-0.348,1.753-1.042,2.386
			c-0.695,0.634-1.553,0.95-2.572,0.95c-1.019,0-1.861-0.332-2.524-0.996C438.771,642.203,438.44,641.423,438.44,640.527z
			 M439.227,648.079h5.561v22.24h-5.561V648.079z"/>
		<path fill="#FFFFFF" d="M450.486,648.079h5.282v3.568h0.094c0.523-1.112,1.328-2.077,2.408-2.896
			c1.082-0.818,2.549-1.228,4.402-1.228c1.482,0,2.74,0.247,3.775,0.741s1.877,1.144,2.525,1.946
			c0.648,0.804,1.113,1.73,1.391,2.779c0.277,1.051,0.416,2.147,0.416,3.29v14.039h-5.559v-11.259c0-0.618-0.031-1.305-0.094-2.062
			c-0.062-0.756-0.225-1.466-0.486-2.131c-0.262-0.664-0.672-1.22-1.227-1.668c-0.557-0.447-1.314-0.672-2.271-0.672
			c-0.926,0-1.707,0.155-2.34,0.463c-0.633,0.31-1.158,0.727-1.574,1.251c-0.418,0.526-0.719,1.128-0.904,1.808
			s-0.277,1.39-0.277,2.131v12.14h-5.561V648.079z"/>
		<path fill="#FFFFFF" d="M488.246,654.241c-1.08-1.513-2.533-2.27-4.355-2.27c-0.74,0-1.467,0.185-2.178,0.556
			c-0.709,0.371-1.064,0.973-1.064,1.807c0,0.68,0.293,1.175,0.881,1.483c0.586,0.309,1.326,0.571,2.223,0.787
			c0.896,0.217,1.861,0.44,2.896,0.672s2,0.587,2.896,1.065c0.895,0.479,1.637,1.136,2.223,1.97
			c0.588,0.834,0.881,1.977,0.881,3.429c0,1.328-0.285,2.448-0.857,3.359s-1.312,1.645-2.225,2.2
			c-0.91,0.557-1.938,0.958-3.08,1.205s-2.287,0.37-3.43,0.37c-1.729,0-3.32-0.247-4.771-0.741c-1.453-0.493-2.75-1.39-3.893-2.688
			l3.707-3.475c0.711,0.804,1.475,1.46,2.293,1.969c0.818,0.51,1.814,0.765,2.99,0.765c0.4,0,0.816-0.046,1.25-0.139
			c0.432-0.093,0.834-0.247,1.205-0.464c0.371-0.215,0.672-0.486,0.902-0.811c0.232-0.324,0.348-0.702,0.348-1.135
			c0-0.771-0.293-1.344-0.879-1.715c-0.588-0.37-1.33-0.672-2.225-0.903c-0.896-0.231-1.861-0.447-2.896-0.648
			c-1.035-0.2-2-0.525-2.895-0.973c-0.896-0.448-1.639-1.073-2.225-1.877c-0.588-0.803-0.881-1.915-0.881-3.336
			c0-1.235,0.256-2.309,0.766-3.221c0.51-0.91,1.182-1.659,2.016-2.247c0.834-0.586,1.791-1.019,2.871-1.297
			c1.082-0.278,2.178-0.417,3.291-0.417c1.482,0,2.949,0.255,4.4,0.765s2.625,1.383,3.521,2.617L488.246,654.241z"/>
		<path fill="#FFFFFF" d="M498.115,663.926h5.652l-3.938,12.231h-4.957L498.115,663.926z"/>
		<path fill="#FFFFFF" d="M545.188,648.079v20.248c0,2.008-0.246,3.822-0.74,5.444c-0.494,1.621-1.26,2.995-2.293,4.123
			c-1.037,1.128-2.34,2-3.916,2.618c-1.576,0.617-3.445,0.927-5.605,0.927c-2.07,0-4.031-0.263-5.885-0.788
			s-3.568-1.482-5.143-2.872l3.336-4.541c1.111,1.02,2.27,1.807,3.475,2.363c1.205,0.556,2.594,0.834,4.17,0.834
			c1.328,0,2.447-0.186,3.359-0.557c0.91-0.37,1.637-0.88,2.178-1.528c0.539-0.648,0.926-1.43,1.158-2.34
			c0.23-0.912,0.348-1.923,0.348-3.035v-1.622h-0.094c-0.803,1.082-1.869,1.893-3.197,2.433s-2.688,0.812-4.076,0.812
			c-1.668,0-3.182-0.302-4.541-0.904c-1.359-0.602-2.525-1.413-3.498-2.432c-0.973-1.02-1.723-2.225-2.248-3.614
			s-0.787-2.873-0.787-4.448c0-1.637,0.246-3.166,0.742-4.587c0.492-1.42,1.219-2.656,2.178-3.707
			c0.957-1.05,2.107-1.876,3.451-2.479s2.879-0.903,4.609-0.903c1.576,0,3.043,0.309,4.402,0.927s2.439,1.606,3.244,2.965h0.092
			v-3.336H545.188z M533.326,652.527c-0.988,0-1.883,0.162-2.688,0.486c-0.803,0.324-1.49,0.772-2.061,1.344
			c-0.572,0.572-1.02,1.267-1.344,2.085c-0.324,0.819-0.486,1.723-0.486,2.711c0,0.896,0.162,1.729,0.486,2.502
			s0.779,1.452,1.367,2.038c0.586,0.588,1.281,1.051,2.084,1.391s1.668,0.51,2.596,0.51c1.02,0,1.938-0.17,2.756-0.51
			s1.514-0.795,2.086-1.367c0.57-0.571,1.01-1.258,1.32-2.062c0.309-0.803,0.463-1.668,0.463-2.595c0-1.946-0.588-3.521-1.76-4.727
			C536.971,653.13,535.365,652.527,533.326,652.527z"/>
		<path fill="#FFFFFF" d="M550.1,640.527c0-0.896,0.332-1.676,0.996-2.34s1.506-0.996,2.525-0.996s1.877,0.316,2.572,0.949
			c0.693,0.634,1.041,1.43,1.041,2.387s-0.348,1.753-1.041,2.386c-0.695,0.634-1.553,0.95-2.572,0.95s-1.861-0.332-2.525-0.996
			S550.1,641.423,550.1,640.527z M550.887,648.079h5.561v22.24h-5.561V648.079z"/>
		<path fill="#FFFFFF" d="M559.135,648.079h6.07l5.93,15.568h0.094l5.977-15.568h5.699l-8.758,22.24h-5.93L559.135,648.079z"/>
		<path fill="#FFFFFF" d="M589.945,661.146c0.186,1.668,0.834,2.965,1.947,3.892c1.111,0.927,2.455,1.391,4.029,1.391
			c1.391,0,2.557-0.285,3.5-0.857c0.941-0.571,1.768-1.289,2.479-2.154l3.984,3.012c-1.297,1.606-2.75,2.749-4.355,3.429
			c-1.607,0.679-3.289,1.019-5.051,1.019c-1.668,0-3.242-0.277-4.727-0.834c-1.482-0.556-2.764-1.344-3.846-2.362
			c-1.08-1.02-1.938-2.247-2.57-3.684s-0.949-3.035-0.949-4.796s0.316-3.359,0.949-4.795c0.633-1.437,1.49-2.665,2.57-3.684
			c1.082-1.02,2.363-1.808,3.846-2.363c1.484-0.556,3.059-0.834,4.727-0.834c1.545,0,2.957,0.271,4.24,0.811
			c1.281,0.541,2.377,1.32,3.289,2.34c0.91,1.02,1.621,2.278,2.131,3.776c0.51,1.499,0.766,3.22,0.766,5.166v1.529H589.945z
			 M601.344,656.976c-0.031-1.637-0.541-2.927-1.529-3.869c-0.988-0.941-2.363-1.413-4.123-1.413c-1.668,0-2.988,0.479-3.961,1.437
			c-0.975,0.958-1.568,2.239-1.785,3.846H601.344z"/>
		<path fill="#FFFFFF" d="M625.299,667.262h-0.139c-0.805,1.267-1.824,2.186-3.059,2.757c-1.236,0.571-2.596,0.856-4.078,0.856
			c-1.02,0-2.016-0.139-2.988-0.417c-0.973-0.277-1.838-0.694-2.594-1.251c-0.758-0.556-1.367-1.251-1.83-2.085
			c-0.465-0.834-0.695-1.807-0.695-2.919c0-1.204,0.215-2.231,0.648-3.081c0.432-0.849,1.012-1.56,1.736-2.131
			c0.727-0.571,1.568-1.027,2.525-1.367s1.953-0.595,2.988-0.765c1.035-0.169,2.078-0.278,3.129-0.324
			c1.049-0.046,2.039-0.069,2.965-0.069h1.391v-0.603c0-1.39-0.48-2.433-1.438-3.127c-0.957-0.695-2.178-1.043-3.66-1.043
			c-1.174,0-2.27,0.208-3.289,0.625c-1.02,0.418-1.9,0.981-2.641,1.691l-2.92-2.919c1.236-1.266,2.68-2.178,4.332-2.733
			s3.359-0.834,5.121-0.834c1.574,0,2.902,0.178,3.984,0.533c1.08,0.355,1.977,0.811,2.688,1.366
			c0.709,0.557,1.258,1.197,1.645,1.923c0.385,0.727,0.664,1.46,0.834,2.201s0.27,1.459,0.301,2.154s0.047,1.306,0.047,1.83v12.788
			h-5.004V667.262z M624.975,660.357h-1.158c-0.773,0-1.639,0.031-2.596,0.093c-0.957,0.062-1.861,0.209-2.711,0.44
			s-1.568,0.572-2.154,1.02c-0.586,0.448-0.881,1.073-0.881,1.876c0,0.525,0.117,0.966,0.348,1.32
			c0.232,0.355,0.533,0.657,0.904,0.904s0.787,0.425,1.252,0.532c0.463,0.108,0.926,0.162,1.389,0.162
			c1.916,0,3.328-0.455,4.24-1.366c0.91-0.911,1.367-2.155,1.367-3.73V660.357z"/>
		<path fill="#FFFFFF" d="M632.572,648.079h6.023l4.818,15.568h0.092l4.496-15.568h6.023l4.818,15.568h0.092l4.633-15.568h5.607
			l-7.553,22.24h-5.514l-5.281-15.197h-0.094l-4.68,15.197h-5.744L632.572,648.079z"/>
		<path fill="#FFFFFF" d="M685.67,667.262h-0.139c-0.805,1.267-1.824,2.186-3.059,2.757c-1.236,0.571-2.596,0.856-4.078,0.856
			c-1.02,0-2.016-0.139-2.988-0.417c-0.973-0.277-1.838-0.694-2.594-1.251c-0.758-0.556-1.367-1.251-1.83-2.085
			c-0.465-0.834-0.695-1.807-0.695-2.919c0-1.204,0.215-2.231,0.648-3.081c0.432-0.849,1.012-1.56,1.736-2.131
			c0.727-0.571,1.568-1.027,2.525-1.367s1.953-0.595,2.988-0.765c1.035-0.169,2.078-0.278,3.129-0.324
			c1.049-0.046,2.039-0.069,2.965-0.069h1.391v-0.603c0-1.39-0.48-2.433-1.438-3.127c-0.957-0.695-2.178-1.043-3.66-1.043
			c-1.174,0-2.27,0.208-3.289,0.625c-1.02,0.418-1.9,0.981-2.641,1.691l-2.92-2.919c1.236-1.266,2.68-2.178,4.332-2.733
			s3.359-0.834,5.121-0.834c1.574,0,2.902,0.178,3.984,0.533c1.08,0.355,1.977,0.811,2.688,1.366
			c0.709,0.557,1.258,1.197,1.645,1.923c0.385,0.727,0.664,1.46,0.834,2.201s0.27,1.459,0.301,2.154s0.047,1.306,0.047,1.83v12.788
			h-5.004V667.262z M685.346,660.357h-1.158c-0.773,0-1.639,0.031-2.596,0.093c-0.957,0.062-1.861,0.209-2.711,0.44
			s-1.568,0.572-2.154,1.02c-0.586,0.448-0.881,1.073-0.881,1.876c0,0.525,0.117,0.966,0.348,1.32
			c0.232,0.355,0.533,0.657,0.904,0.904s0.787,0.425,1.252,0.532c0.463,0.108,0.926,0.162,1.389,0.162
			c1.916,0,3.328-0.455,4.24-1.366c0.91-0.911,1.367-2.155,1.367-3.73V660.357z"/>
		<path fill="#FFFFFF" d="M692.943,648.079h6.117l6.209,15.43h0.092l5.561-15.43h5.791l-10.518,27.013
			c-0.402,1.05-0.842,1.969-1.32,2.757c-0.479,0.787-1.043,1.451-1.691,1.992c-0.648,0.54-1.412,0.941-2.293,1.205
			c-0.881,0.262-1.939,0.394-3.174,0.394c-1.453,0-2.873-0.186-4.264-0.556l0.695-5.005c0.432,0.154,0.889,0.286,1.367,0.395
			c0.479,0.107,0.965,0.162,1.459,0.162c0.68,0,1.252-0.062,1.715-0.186c0.463-0.124,0.857-0.317,1.182-0.579
			c0.324-0.263,0.594-0.603,0.811-1.02s0.447-0.919,0.695-1.506l1.066-2.641L692.943,648.079z"/>
		<path fill="#FFFFFF" d="M731.168,654.241c-1.08-1.513-2.533-2.27-4.355-2.27c-0.74,0-1.467,0.185-2.178,0.556
			c-0.709,0.371-1.064,0.973-1.064,1.807c0,0.68,0.293,1.175,0.881,1.483c0.586,0.309,1.326,0.571,2.223,0.787
			c0.896,0.217,1.861,0.44,2.896,0.672s2,0.587,2.896,1.065c0.895,0.479,1.637,1.136,2.223,1.97
			c0.588,0.834,0.881,1.977,0.881,3.429c0,1.328-0.285,2.448-0.857,3.359s-1.312,1.645-2.225,2.2
			c-0.91,0.557-1.938,0.958-3.08,1.205s-2.287,0.37-3.43,0.37c-1.729,0-3.32-0.247-4.771-0.741c-1.453-0.493-2.75-1.39-3.893-2.688
			l3.707-3.475c0.711,0.804,1.475,1.46,2.293,1.969c0.818,0.51,1.814,0.765,2.99,0.765c0.4,0,0.816-0.046,1.25-0.139
			c0.432-0.093,0.834-0.247,1.205-0.464c0.371-0.215,0.672-0.486,0.902-0.811c0.232-0.324,0.348-0.702,0.348-1.135
			c0-0.771-0.293-1.344-0.879-1.715c-0.588-0.37-1.33-0.672-2.225-0.903c-0.896-0.231-1.861-0.447-2.896-0.648
			c-1.035-0.2-2-0.525-2.895-0.973c-0.896-0.448-1.639-1.073-2.225-1.877c-0.588-0.803-0.881-1.915-0.881-3.336
			c0-1.235,0.256-2.309,0.766-3.221c0.51-0.91,1.182-1.659,2.016-2.247c0.834-0.586,1.791-1.019,2.871-1.297
			c1.082-0.278,2.178-0.417,3.291-0.417c1.482,0,2.949,0.255,4.4,0.765s2.625,1.383,3.521,2.617L731.168,654.241z"/>
		<path fill="#FFFFFF" d="M741.037,663.926h5.652l-3.938,12.231h-4.959L741.037,663.926z"/>
		<path fill="#FFFFFF" d="M216.09,707.479c0.186,1.668,0.834,2.965,1.946,3.892c1.112,0.927,2.456,1.391,4.031,1.391
			c1.39,0,2.556-0.285,3.498-0.857c0.942-0.571,1.768-1.289,2.479-2.154l3.984,3.012c-1.297,1.606-2.75,2.749-4.355,3.429
			c-1.606,0.679-3.29,1.019-5.05,1.019c-1.668,0-3.244-0.277-4.726-0.834c-1.483-0.556-2.765-1.344-3.846-2.362
			c-1.082-1.02-1.939-2.247-2.572-3.684c-0.633-1.437-0.95-3.035-0.95-4.796s0.316-3.359,0.95-4.795
			c0.633-1.437,1.49-2.665,2.572-3.684c1.081-1.02,2.363-1.808,3.846-2.363c1.482-0.556,3.058-0.834,4.726-0.834
			c1.544,0,2.957,0.271,4.239,0.811c1.281,0.541,2.378,1.32,3.29,2.34s1.622,2.278,2.131,3.776c0.51,1.499,0.765,3.22,0.765,5.166
			v1.529H216.09z M227.488,703.309c-0.031-1.637-0.541-2.927-1.529-3.869c-0.989-0.941-2.363-1.413-4.124-1.413
			c-1.668,0-2.989,0.479-3.962,1.437c-0.973,0.958-1.568,2.239-1.784,3.846H227.488z"/>
		<path fill="#FFFFFF" d="M243.288,704.698l-7.691-10.286h6.765l4.448,6.672l4.818-6.672h6.348l-7.599,10.286l8.942,11.954h-6.765
			l-5.792-7.97l-5.838,7.97h-6.58L243.288,704.698z"/>
		<path fill="#FFFFFF" d="M276.925,701.084c-0.649-0.679-1.329-1.22-2.039-1.621c-0.711-0.401-1.437-0.603-2.178-0.603
			c-1.02,0-1.931,0.186-2.734,0.556c-0.804,0.371-1.491,0.865-2.062,1.483c-0.572,0.618-1.004,1.328-1.297,2.131
			c-0.294,0.804-0.44,1.638-0.44,2.502c0,0.865,0.146,1.699,0.44,2.502c0.293,0.804,0.725,1.514,1.297,2.132
			c0.571,0.618,1.258,1.111,2.062,1.482c0.803,0.37,1.714,0.556,2.734,0.556c0.864,0,1.668-0.177,2.409-0.532
			s1.374-0.873,1.899-1.553l3.707,3.985c-0.556,0.556-1.198,1.035-1.923,1.436c-0.726,0.402-1.459,0.727-2.201,0.974
			c-0.741,0.246-1.452,0.424-2.131,0.532c-0.68,0.108-1.267,0.162-1.76,0.162c-1.668,0-3.244-0.277-4.726-0.834
			c-1.483-0.556-2.765-1.344-3.846-2.362c-1.082-1.02-1.939-2.247-2.572-3.684c-0.633-1.437-0.95-3.035-0.95-4.796
			s0.316-3.359,0.95-4.795c0.633-1.437,1.49-2.665,2.572-3.684c1.081-1.02,2.363-1.808,3.846-2.363
			c1.482-0.556,3.058-0.834,4.726-0.834c1.42,0,2.849,0.271,4.286,0.811c1.437,0.541,2.695,1.398,3.776,2.571L276.925,701.084z"/>
		<path fill="#FFFFFF" d="M283.458,681.624h5.56v35.028h-5.56V681.624z"/>
		<path fill="#FFFFFF" d="M315.011,716.652h-5.282v-3.567h-0.093c-0.525,1.111-1.328,2.077-2.409,2.896
			c-1.082,0.818-2.548,1.228-4.402,1.228c-1.482,0-2.741-0.239-3.776-0.718c-1.035-0.479-1.876-1.127-2.525-1.946
			c-0.648-0.817-1.112-1.753-1.39-2.803c-0.278-1.05-0.417-2.146-0.417-3.29v-14.039h5.56v11.259c0,0.619,0.031,1.306,0.093,2.062
			c0.062,0.757,0.224,1.467,0.487,2.131c0.262,0.665,0.664,1.221,1.205,1.668c0.54,0.448,1.304,0.672,2.293,0.672
			c0.927,0,1.706-0.154,2.34-0.463c0.633-0.309,1.158-0.726,1.575-1.251s0.718-1.127,0.903-1.808
			c0.186-0.679,0.278-1.39,0.278-2.131v-12.14h5.56V716.652z"/>
		<path fill="#FFFFFF" d="M332.478,700.574c-1.082-1.513-2.533-2.27-4.355-2.27c-0.741,0-1.468,0.185-2.178,0.556
			c-0.711,0.371-1.065,0.973-1.065,1.807c0,0.68,0.293,1.175,0.88,1.483c0.586,0.309,1.328,0.571,2.224,0.787
			c0.896,0.217,1.861,0.44,2.896,0.672c1.035,0.231,2,0.587,2.896,1.065c0.896,0.479,1.637,1.136,2.224,1.97
			c0.586,0.834,0.88,1.977,0.88,3.429c0,1.328-0.286,2.448-0.857,3.359c-0.572,0.911-1.313,1.645-2.224,2.2
			c-0.912,0.557-1.939,0.958-3.081,1.205c-1.143,0.247-2.287,0.37-3.429,0.37c-1.73,0-3.321-0.247-4.772-0.741
			c-1.452-0.493-2.75-1.39-3.892-2.688l3.707-3.475c0.71,0.804,1.475,1.46,2.293,1.969c0.818,0.51,1.814,0.765,2.988,0.765
			c0.401,0,0.818-0.046,1.251-0.139c0.432-0.093,0.834-0.247,1.205-0.464c0.371-0.215,0.672-0.486,0.904-0.811
			c0.231-0.324,0.347-0.702,0.347-1.135c0-0.771-0.294-1.344-0.88-1.715c-0.587-0.37-1.328-0.672-2.224-0.903
			c-0.896-0.231-1.861-0.447-2.896-0.648c-1.035-0.2-2-0.525-2.896-0.973c-0.896-0.448-1.637-1.073-2.224-1.877
			c-0.587-0.803-0.88-1.915-0.88-3.336c0-1.235,0.255-2.309,0.764-3.221c0.51-0.91,1.182-1.659,2.016-2.247
			c0.834-0.586,1.791-1.019,2.873-1.297c1.081-0.278,2.178-0.417,3.29-0.417c1.482,0,2.949,0.255,4.401,0.765
			c1.452,0.51,2.625,1.383,3.521,2.617L332.478,700.574z"/>
		<path fill="#FFFFFF" d="M339.797,686.86c0-0.896,0.332-1.676,0.996-2.34c0.664-0.664,1.506-0.996,2.525-0.996
			c1.019,0,1.876,0.316,2.571,0.949c0.695,0.634,1.042,1.43,1.042,2.387s-0.347,1.753-1.042,2.386
			c-0.695,0.634-1.552,0.95-2.571,0.95c-1.02,0-1.861-0.332-2.525-0.996C340.129,688.536,339.797,687.756,339.797,686.86z
			 M340.585,694.412h5.56v22.24h-5.56V694.412z"/>
		<path fill="#FFFFFF" d="M348.832,694.412h6.069l5.931,15.568h0.093l5.977-15.568h5.699l-8.757,22.24h-5.931L348.832,694.412z"/>
		<path fill="#FFFFFF" d="M379.644,707.479c0.186,1.668,0.834,2.965,1.946,3.892c1.112,0.927,2.456,1.391,4.031,1.391
			c1.39,0,2.556-0.285,3.498-0.857c0.942-0.571,1.768-1.289,2.479-2.154l3.984,3.012c-1.297,1.606-2.75,2.749-4.355,3.429
			c-1.606,0.679-3.29,1.019-5.05,1.019c-1.668,0-3.244-0.277-4.726-0.834c-1.483-0.556-2.765-1.344-3.846-2.362
			c-1.082-1.02-1.939-2.247-2.572-3.684c-0.633-1.437-0.95-3.035-0.95-4.796s0.316-3.359,0.95-4.795
			c0.633-1.437,1.49-2.665,2.572-3.684c1.081-1.02,2.363-1.808,3.846-2.363c1.482-0.556,3.058-0.834,4.726-0.834
			c1.544,0,2.957,0.271,4.239,0.811c1.281,0.541,2.378,1.32,3.29,2.34s1.622,2.278,2.131,3.776c0.51,1.499,0.765,3.22,0.765,5.166
			v1.529H379.644z M391.042,703.309c-0.031-1.637-0.541-2.927-1.529-3.869c-0.989-0.941-2.363-1.413-4.124-1.413
			c-1.668,0-2.989,0.479-3.962,1.437c-0.973,0.958-1.568,2.239-1.784,3.846H391.042z"/>
		<path fill="#FFFFFF" d="M412.957,700.574c-1.082-1.513-2.533-2.27-4.355-2.27c-0.741,0-1.468,0.185-2.178,0.556
			c-0.711,0.371-1.065,0.973-1.065,1.807c0,0.68,0.293,1.175,0.88,1.483c0.586,0.309,1.328,0.571,2.224,0.787
			c0.896,0.217,1.861,0.44,2.896,0.672c1.035,0.231,2,0.587,2.896,1.065c0.896,0.479,1.637,1.136,2.224,1.97
			c0.586,0.834,0.88,1.977,0.88,3.429c0,1.328-0.286,2.448-0.857,3.359c-0.572,0.911-1.313,1.645-2.224,2.2
			c-0.912,0.557-1.939,0.958-3.081,1.205c-1.143,0.247-2.287,0.37-3.429,0.37c-1.73,0-3.321-0.247-4.772-0.741
			c-1.452-0.493-2.75-1.39-3.892-2.688l3.707-3.475c0.71,0.804,1.475,1.46,2.293,1.969c0.818,0.51,1.814,0.765,2.988,0.765
			c0.401,0,0.818-0.046,1.251-0.139c0.432-0.093,0.834-0.247,1.205-0.464c0.371-0.215,0.672-0.486,0.904-0.811
			c0.231-0.324,0.347-0.702,0.347-1.135c0-0.771-0.294-1.344-0.88-1.715c-0.587-0.37-1.328-0.672-2.224-0.903
			c-0.896-0.231-1.861-0.447-2.896-0.648c-1.035-0.2-2-0.525-2.896-0.973c-0.896-0.448-1.637-1.073-2.224-1.877
			c-0.587-0.803-0.88-1.915-0.88-3.336c0-1.235,0.255-2.309,0.764-3.221c0.51-0.91,1.182-1.659,2.016-2.247
			c0.834-0.586,1.791-1.019,2.873-1.297c1.081-0.278,2.178-0.417,3.29-0.417c1.482,0,2.949,0.255,4.401,0.765
			c1.452,0.51,2.625,1.383,3.521,2.617L412.957,700.574z"/>
		<path fill="#FFFFFF" d="M422.825,710.259h5.653l-3.938,12.231h-4.958L422.825,710.259z"/>
		<path fill="#FFFFFF" d="M460.91,713.595h-0.139c-0.805,1.267-1.824,2.186-3.059,2.757c-1.236,0.571-2.596,0.856-4.078,0.856
			c-1.02,0-2.016-0.139-2.988-0.417c-0.974-0.277-1.839-0.694-2.595-1.251c-0.758-0.556-1.367-1.251-1.83-2.085
			c-0.464-0.834-0.695-1.807-0.695-2.919c0-1.204,0.216-2.231,0.648-3.081c0.433-0.849,1.012-1.56,1.737-2.131
			s1.567-1.027,2.525-1.367c0.957-0.34,1.953-0.595,2.988-0.765c1.035-0.169,2.078-0.278,3.129-0.324
			c1.049-0.046,2.039-0.069,2.965-0.069h1.391v-0.603c0-1.39-0.48-2.433-1.438-3.127c-0.957-0.695-2.178-1.043-3.66-1.043
			c-1.174,0-2.27,0.208-3.289,0.625c-1.02,0.418-1.9,0.981-2.641,1.691l-2.919-2.919c1.235-1.266,2.68-2.178,4.332-2.733
			c1.652-0.556,3.359-0.834,5.121-0.834c1.574,0,2.902,0.178,3.984,0.533c1.08,0.355,1.977,0.811,2.688,1.366
			c0.709,0.557,1.258,1.197,1.645,1.923c0.385,0.727,0.664,1.46,0.834,2.201s0.27,1.459,0.301,2.154s0.047,1.306,0.047,1.83v12.788
			h-5.004V713.595z M460.586,706.69h-1.158c-0.773,0-1.639,0.031-2.596,0.093c-0.957,0.062-1.861,0.209-2.711,0.44
			s-1.568,0.572-2.154,1.02c-0.586,0.448-0.881,1.073-0.881,1.876c0,0.525,0.117,0.966,0.348,1.32
			c0.232,0.355,0.533,0.657,0.904,0.904s0.787,0.425,1.252,0.532c0.463,0.108,0.926,0.162,1.389,0.162
			c1.916,0,3.328-0.455,4.24-1.366c0.91-0.911,1.367-2.155,1.367-3.73V706.69z"/>
		<path fill="#FFFFFF" d="M471.195,694.412h5.281v3.568h0.094c0.523-1.112,1.328-2.077,2.408-2.896
			c1.082-0.818,2.549-1.228,4.402-1.228c1.482,0,2.74,0.247,3.775,0.741s1.877,1.144,2.525,1.946
			c0.648,0.804,1.113,1.73,1.391,2.779c0.277,1.051,0.416,2.147,0.416,3.29v14.039h-5.559v-11.259c0-0.618-0.031-1.305-0.094-2.062
			c-0.062-0.756-0.225-1.466-0.486-2.131c-0.262-0.664-0.672-1.22-1.227-1.668c-0.557-0.447-1.314-0.672-2.271-0.672
			c-0.926,0-1.707,0.155-2.34,0.463c-0.633,0.31-1.158,0.727-1.574,1.251c-0.418,0.526-0.719,1.128-0.904,1.808
			s-0.277,1.39-0.277,2.131v12.14h-5.561V694.412z"/>
		<path fill="#FFFFFF" d="M514.701,713.316h-0.092c-0.805,1.359-1.885,2.348-3.244,2.965c-1.359,0.618-2.826,0.927-4.402,0.927
			c-1.73,0-3.266-0.301-4.609-0.903s-2.494-1.428-3.451-2.479c-0.959-1.05-1.686-2.286-2.178-3.707
			c-0.496-1.42-0.742-2.949-0.742-4.587c0-1.637,0.262-3.166,0.787-4.587c0.525-1.42,1.26-2.656,2.201-3.707
			c0.941-1.05,2.078-1.876,3.406-2.479s2.779-0.903,4.355-0.903c1.049,0,1.977,0.108,2.779,0.324
			c0.803,0.217,1.514,0.494,2.131,0.834s1.143,0.703,1.576,1.089c0.432,0.387,0.787,0.765,1.064,1.135h0.141v-15.614h5.559v35.028
			h-5.281V713.316z M501.543,705.532c0,0.865,0.146,1.699,0.439,2.502c0.293,0.804,0.727,1.514,1.297,2.132
			c0.572,0.618,1.26,1.111,2.062,1.482c0.803,0.37,1.715,0.556,2.734,0.556s1.93-0.186,2.732-0.556
			c0.803-0.371,1.49-0.864,2.062-1.482c0.57-0.618,1.004-1.328,1.297-2.132c0.293-0.803,0.441-1.637,0.441-2.502
			c0-0.864-0.148-1.698-0.441-2.502c-0.293-0.803-0.727-1.513-1.297-2.131c-0.572-0.618-1.26-1.112-2.062-1.483
			c-0.803-0.37-1.713-0.556-2.732-0.556s-1.932,0.186-2.734,0.556c-0.803,0.371-1.49,0.865-2.062,1.483
			c-0.57,0.618-1.004,1.328-1.297,2.131C501.689,703.834,501.543,704.668,501.543,705.532z"/>
		<path fill="#FFFFFF" d="M538.377,694.412h5.281v3.476h0.094c0.492-1.05,1.289-1.984,2.385-2.804
			c1.098-0.818,2.572-1.228,4.426-1.228c3.49,0,5.807,1.375,6.949,4.124c0.803-1.421,1.807-2.463,3.012-3.128
			c1.205-0.664,2.641-0.996,4.309-0.996c1.484,0,2.734,0.247,3.754,0.741s1.846,1.174,2.479,2.039s1.09,1.876,1.367,3.034
			s0.416,2.402,0.416,3.73v13.251h-5.559V704.05c0-0.679-0.062-1.336-0.186-1.97c-0.125-0.632-0.34-1.188-0.648-1.668
			c-0.311-0.479-0.727-0.856-1.252-1.135s-1.205-0.417-2.039-0.417c-0.865,0-1.598,0.162-2.199,0.486
			c-0.604,0.324-1.098,0.758-1.484,1.298c-0.385,0.54-0.664,1.158-0.834,1.853c-0.17,0.695-0.254,1.398-0.254,2.108v12.047h-5.561
			v-13.251c0-1.391-0.293-2.494-0.879-3.313c-0.588-0.817-1.561-1.228-2.92-1.228c-0.926,0-1.707,0.155-2.34,0.463
			c-0.633,0.31-1.158,0.727-1.576,1.251c-0.416,0.526-0.717,1.128-0.902,1.808s-0.279,1.39-0.279,2.131v12.14h-5.559V694.412z"/>
		<path fill="#FFFFFF" d="M577.111,705.532c0-1.761,0.316-3.359,0.949-4.795c0.633-1.437,1.49-2.665,2.57-3.684
			c1.082-1.02,2.363-1.808,3.846-2.363c1.484-0.556,3.059-0.834,4.727-0.834s3.244,0.278,4.727,0.834s2.764,1.344,3.846,2.363
			c1.08,1.019,1.938,2.247,2.57,3.684c0.633,1.436,0.951,3.034,0.951,4.795s-0.318,3.359-0.951,4.796s-1.49,2.664-2.57,3.684
			c-1.082,1.019-2.363,1.807-3.846,2.362c-1.482,0.557-3.059,0.834-4.727,0.834s-3.242-0.277-4.727-0.834
			c-1.482-0.556-2.764-1.344-3.846-2.362c-1.08-1.02-1.938-2.247-2.57-3.684S577.111,707.293,577.111,705.532z M582.67,705.532
			c0,0.865,0.146,1.699,0.441,2.502c0.293,0.804,0.725,1.514,1.297,2.132c0.57,0.618,1.258,1.111,2.062,1.482
			c0.803,0.37,1.713,0.556,2.732,0.556s1.93-0.186,2.734-0.556c0.803-0.371,1.49-0.864,2.061-1.482
			c0.572-0.618,1.004-1.328,1.299-2.132c0.293-0.803,0.439-1.637,0.439-2.502c0-0.864-0.146-1.698-0.439-2.502
			c-0.295-0.803-0.727-1.513-1.299-2.131c-0.57-0.618-1.258-1.112-2.061-1.483c-0.805-0.37-1.715-0.556-2.734-0.556
			s-1.93,0.186-2.732,0.556c-0.805,0.371-1.492,0.865-2.062,1.483c-0.572,0.618-1.004,1.328-1.297,2.131
			C582.816,703.834,582.67,704.668,582.67,705.532z"/>
		<path fill="#FFFFFF" d="M605.791,694.412h5.561v3.521h0.092c0.617-1.297,1.498-2.301,2.641-3.012
			c1.143-0.71,2.457-1.065,3.939-1.065c0.34,0,0.672,0.031,0.996,0.093c0.324,0.062,0.656,0.139,0.996,0.231v5.375
			c-0.463-0.123-0.92-0.224-1.367-0.302c-0.449-0.076-0.889-0.115-1.32-0.115c-1.297,0-2.34,0.239-3.127,0.718
			c-0.789,0.479-1.391,1.027-1.809,1.645c-0.416,0.618-0.693,1.236-0.834,1.854c-0.139,0.618-0.207,1.082-0.207,1.391v11.907h-5.561
			V694.412z"/>
		<path fill="#FFFFFF" d="M627.566,707.479c0.186,1.668,0.834,2.965,1.947,3.892c1.111,0.927,2.455,1.391,4.029,1.391
			c1.391,0,2.557-0.285,3.5-0.857c0.941-0.571,1.768-1.289,2.479-2.154l3.984,3.012c-1.297,1.606-2.75,2.749-4.355,3.429
			c-1.607,0.679-3.289,1.019-5.051,1.019c-1.668,0-3.242-0.277-4.727-0.834c-1.482-0.556-2.764-1.344-3.846-2.362
			c-1.08-1.02-1.938-2.247-2.57-3.684s-0.949-3.035-0.949-4.796s0.316-3.359,0.949-4.795c0.633-1.437,1.49-2.665,2.57-3.684
			c1.082-1.02,2.363-1.808,3.846-2.363c1.484-0.556,3.059-0.834,4.727-0.834c1.545,0,2.957,0.271,4.24,0.811
			c1.281,0.541,2.377,1.32,3.289,2.34c0.91,1.02,1.621,2.278,2.131,3.776c0.51,1.499,0.766,3.22,0.766,5.166v1.529H627.566z
			 M638.965,703.309c-0.031-1.637-0.541-2.927-1.529-3.869c-0.988-0.941-2.363-1.413-4.123-1.413c-1.668,0-2.988,0.479-3.961,1.437
			c-0.975,0.958-1.568,2.239-1.785,3.846H638.965z"/>
		<path fill="#FFFFFF" d="M692.201,707.479h-46.334v-4.448h46.334V707.479z"/>
		<path fill="#FFFFFF" d="M203.929,759.65h-0.093c-0.804,1.359-1.884,2.348-3.243,2.965c-1.36,0.618-2.826,0.927-4.402,0.927
			c-1.73,0-3.267-0.301-4.61-0.903c-1.344-0.603-2.495-1.428-3.452-2.479c-0.958-1.05-1.684-2.286-2.178-3.707
			c-0.494-1.42-0.741-2.949-0.741-4.587c0-1.637,0.262-3.166,0.788-4.587c0.525-1.42,1.258-2.656,2.201-3.707
			c0.942-1.05,2.077-1.876,3.405-2.479c1.328-0.603,2.78-0.903,4.355-0.903c1.05,0,1.976,0.108,2.78,0.324
			c0.803,0.217,1.513,0.494,2.131,0.834c0.618,0.34,1.143,0.703,1.576,1.089c0.432,0.387,0.788,0.765,1.065,1.135h0.139v-15.614
			h5.56v35.028h-5.282V759.65z M190.771,751.866c0,0.865,0.146,1.699,0.44,2.502c0.293,0.804,0.725,1.514,1.297,2.132
			c0.571,0.618,1.258,1.111,2.062,1.482c0.803,0.37,1.714,0.556,2.734,0.556c1.019,0,1.93-0.186,2.733-0.556
			c0.803-0.371,1.49-0.864,2.062-1.482c0.571-0.618,1.003-1.328,1.297-2.132c0.293-0.803,0.44-1.637,0.44-2.502
			c0-0.864-0.147-1.698-0.44-2.502c-0.294-0.803-0.726-1.513-1.297-2.131c-0.572-0.618-1.259-1.112-2.062-1.483
			c-0.804-0.37-1.714-0.556-2.733-0.556c-1.02,0-1.931,0.186-2.734,0.556c-0.804,0.371-1.491,0.865-2.062,1.483
			c-0.572,0.618-1.004,1.328-1.297,2.131C190.917,750.168,190.771,751.002,190.771,751.866z"/>
		<path fill="#FFFFFF" d="M219.265,753.812c0.186,1.668,0.834,2.965,1.946,3.892c1.112,0.927,2.456,1.391,4.031,1.391
			c1.39,0,2.556-0.285,3.498-0.857c0.942-0.571,1.768-1.289,2.479-2.154l3.984,3.012c-1.297,1.606-2.75,2.749-4.355,3.429
			c-1.606,0.679-3.29,1.019-5.05,1.019c-1.668,0-3.244-0.277-4.726-0.834c-1.483-0.556-2.765-1.344-3.846-2.362
			c-1.082-1.02-1.939-2.247-2.572-3.684c-0.633-1.437-0.95-3.035-0.95-4.796s0.316-3.359,0.95-4.795
			c0.633-1.437,1.49-2.665,2.572-3.684c1.081-1.02,2.363-1.808,3.846-2.363c1.482-0.556,3.058-0.834,4.726-0.834
			c1.544,0,2.957,0.271,4.239,0.811c1.281,0.541,2.378,1.32,3.29,2.34s1.622,2.278,2.131,3.776c0.51,1.499,0.765,3.22,0.765,5.166
			v1.529H219.265z M230.663,749.643c-0.031-1.637-0.541-2.927-1.529-3.869c-0.989-0.941-2.363-1.413-4.124-1.413
			c-1.668,0-2.989,0.479-3.962,1.437c-0.973,0.958-1.568,2.239-1.784,3.846H230.663z"/>
		<path fill="#FFFFFF" d="M240.809,727.958h5.56v35.028h-5.56V727.958z"/>
		<path fill="#FFFFFF" d="M251.373,733.194c0-0.896,0.332-1.676,0.996-2.34c0.664-0.664,1.506-0.996,2.525-0.996
			c1.019,0,1.876,0.316,2.571,0.949c0.695,0.634,1.042,1.43,1.042,2.387s-0.347,1.753-1.042,2.386
			c-0.695,0.634-1.552,0.95-2.571,0.95c-1.02,0-1.861-0.332-2.525-0.996C251.705,734.87,251.373,734.09,251.373,733.194z
			 M252.161,740.746h5.56v22.24h-5.56V740.746z"/>
		<path fill="#FFFFFF" d="M260.408,740.746h6.069l5.931,15.568h0.093l5.977-15.568h5.699l-8.757,22.24h-5.931L260.408,740.746z"/>
		<path fill="#FFFFFF" d="M291.219,753.812c0.186,1.668,0.834,2.965,1.946,3.892c1.112,0.927,2.456,1.391,4.031,1.391
			c1.39,0,2.556-0.285,3.498-0.857c0.942-0.571,1.768-1.289,2.479-2.154l3.984,3.012c-1.297,1.606-2.75,2.749-4.355,3.429
			c-1.606,0.679-3.29,1.019-5.05,1.019c-1.668,0-3.244-0.277-4.726-0.834c-1.483-0.556-2.765-1.344-3.846-2.362
			c-1.082-1.02-1.939-2.247-2.572-3.684c-0.633-1.437-0.95-3.035-0.95-4.796s0.316-3.359,0.95-4.795
			c0.633-1.437,1.49-2.665,2.572-3.684c1.081-1.02,2.363-1.808,3.846-2.363c1.482-0.556,3.058-0.834,4.726-0.834
			c1.544,0,2.957,0.271,4.239,0.811c1.281,0.541,2.378,1.32,3.29,2.34s1.622,2.278,2.131,3.776c0.51,1.499,0.765,3.22,0.765,5.166
			v1.529H291.219z M302.617,749.643c-0.031-1.637-0.541-2.927-1.529-3.869c-0.989-0.941-2.363-1.413-4.124-1.413
			c-1.668,0-2.989,0.479-3.962,1.437c-0.973,0.958-1.568,2.239-1.784,3.846H302.617z"/>
		<path fill="#FFFFFF" d="M312.671,740.746h5.56v3.521h0.093c0.618-1.297,1.498-2.301,2.641-3.012
			c1.143-0.71,2.456-1.065,3.938-1.065c0.339,0,0.672,0.031,0.996,0.093c0.324,0.062,0.656,0.139,0.996,0.231v5.375
			c-0.463-0.123-0.919-0.224-1.367-0.302c-0.448-0.076-0.889-0.115-1.321-0.115c-1.297,0-2.34,0.239-3.127,0.718
			c-0.788,0.479-1.39,1.027-1.807,1.645c-0.417,0.618-0.695,1.236-0.834,1.854c-0.139,0.618-0.208,1.082-0.208,1.391v11.907h-5.56
			V740.746z"/>
		<path fill="#FFFFFF" d="M334.447,753.812c0.186,1.668,0.834,2.965,1.946,3.892c1.112,0.927,2.456,1.391,4.031,1.391
			c1.39,0,2.556-0.285,3.498-0.857c0.942-0.571,1.768-1.289,2.479-2.154l3.984,3.012c-1.297,1.606-2.75,2.749-4.355,3.429
			c-1.606,0.679-3.29,1.019-5.05,1.019c-1.668,0-3.244-0.277-4.726-0.834c-1.483-0.556-2.765-1.344-3.846-2.362
			c-1.082-1.02-1.939-2.247-2.572-3.684c-0.633-1.437-0.95-3.035-0.95-4.796s0.316-3.359,0.95-4.795
			c0.633-1.437,1.49-2.665,2.572-3.684c1.081-1.02,2.363-1.808,3.846-2.363c1.482-0.556,3.058-0.834,4.726-0.834
			c1.544,0,2.957,0.271,4.239,0.811c1.281,0.541,2.378,1.32,3.29,2.34s1.622,2.278,2.131,3.776c0.51,1.499,0.765,3.22,0.765,5.166
			v1.529H334.447z M345.845,749.643c-0.031-1.637-0.541-2.927-1.529-3.869c-0.989-0.941-2.363-1.413-4.124-1.413
			c-1.668,0-2.989,0.479-3.962,1.437c-0.973,0.958-1.568,2.239-1.784,3.846H345.845z"/>
		<path fill="#FFFFFF" d="M373.506,759.65h-0.093c-0.804,1.359-1.884,2.348-3.243,2.965c-1.36,0.618-2.826,0.927-4.402,0.927
			c-1.73,0-3.267-0.301-4.61-0.903c-1.344-0.603-2.495-1.428-3.452-2.479c-0.958-1.05-1.684-2.286-2.178-3.707
			c-0.494-1.42-0.741-2.949-0.741-4.587c0-1.637,0.262-3.166,0.788-4.587c0.525-1.42,1.258-2.656,2.201-3.707
			c0.942-1.05,2.077-1.876,3.405-2.479c1.328-0.603,2.78-0.903,4.355-0.903c1.05,0,1.976,0.108,2.78,0.324
			c0.803,0.217,1.513,0.494,2.131,0.834c0.618,0.34,1.143,0.703,1.576,1.089c0.432,0.387,0.788,0.765,1.065,1.135h0.139v-15.614
			h5.56v35.028h-5.282V759.65z M360.347,751.866c0,0.865,0.146,1.699,0.44,2.502c0.293,0.804,0.725,1.514,1.297,2.132
			c0.571,0.618,1.258,1.111,2.062,1.482c0.803,0.37,1.714,0.556,2.734,0.556c1.019,0,1.93-0.186,2.733-0.556
			c0.803-0.371,1.49-0.864,2.062-1.482c0.571-0.618,1.003-1.328,1.297-2.132c0.293-0.803,0.44-1.637,0.44-2.502
			c0-0.864-0.147-1.698-0.44-2.502c-0.294-0.803-0.726-1.513-1.297-2.131c-0.572-0.618-1.259-1.112-2.062-1.483
			c-0.804-0.37-1.714-0.556-2.733-0.556c-1.02,0-1.931,0.186-2.734,0.556c-0.804,0.371-1.491,0.865-2.062,1.483
			c-0.572,0.618-1.004,1.328-1.297,2.131C360.494,750.168,360.347,751.002,360.347,751.866z"/>
		<path fill="#FFFFFF" d="M409.274,746.908c-1.082-1.513-2.533-2.27-4.355-2.27c-0.741,0-1.468,0.185-2.178,0.556
			c-0.711,0.371-1.065,0.973-1.065,1.807c0,0.68,0.293,1.175,0.88,1.483c0.586,0.309,1.328,0.571,2.224,0.787
			c0.896,0.217,1.861,0.44,2.896,0.672c1.035,0.231,2,0.587,2.896,1.065c0.896,0.479,1.637,1.136,2.224,1.97
			c0.586,0.834,0.88,1.977,0.88,3.429c0,1.328-0.286,2.448-0.857,3.359c-0.572,0.911-1.313,1.645-2.224,2.2
			c-0.912,0.557-1.939,0.958-3.081,1.205c-1.143,0.247-2.287,0.37-3.429,0.37c-1.73,0-3.321-0.247-4.772-0.741
			c-1.452-0.493-2.75-1.39-3.892-2.688l3.707-3.475c0.71,0.804,1.475,1.46,2.293,1.969c0.818,0.51,1.814,0.765,2.988,0.765
			c0.401,0,0.818-0.046,1.251-0.139c0.432-0.093,0.834-0.247,1.205-0.464c0.371-0.215,0.672-0.486,0.904-0.811
			c0.231-0.324,0.347-0.702,0.347-1.135c0-0.771-0.294-1.344-0.88-1.715c-0.587-0.37-1.328-0.672-2.224-0.903
			c-0.896-0.231-1.861-0.447-2.896-0.648c-1.035-0.2-2-0.525-2.896-0.973c-0.896-0.448-1.637-1.073-2.224-1.877
			c-0.587-0.803-0.88-1.915-0.88-3.336c0-1.235,0.255-2.309,0.764-3.221c0.51-0.91,1.182-1.659,2.016-2.247
			c0.834-0.586,1.791-1.019,2.873-1.297c1.081-0.278,2.178-0.417,3.29-0.417c1.482,0,2.949,0.255,4.401,0.765
			c1.452,0.51,2.625,1.383,3.521,2.617L409.274,746.908z"/>
		<path fill="#FFFFFF" d="M414.695,745.473v-4.727h4.587v-6.44h5.56v6.44h6.116v4.727h-6.116v9.729c0,1.112,0.208,1.992,0.625,2.642
			c0.417,0.648,1.243,0.973,2.479,0.973c0.494,0,1.035-0.054,1.622-0.162c0.586-0.108,1.049-0.285,1.39-0.533v4.68
			c-0.587,0.278-1.305,0.471-2.154,0.579c-0.85,0.108-1.599,0.162-2.247,0.162c-1.483,0-2.695-0.162-3.637-0.486
			c-0.943-0.324-1.684-0.818-2.224-1.482c-0.541-0.664-0.912-1.49-1.112-2.479c-0.202-0.988-0.301-2.132-0.301-3.429v-10.193
			H414.695z"/>
		<path fill="#FFFFFF" d="M434.618,740.746h5.561v3.521h0.093c0.617-1.297,1.497-2.301,2.641-3.012
			c1.143-0.71,2.456-1.065,3.938-1.065c0.34,0,0.672,0.031,0.996,0.093c0.324,0.062,0.656,0.139,0.996,0.231v5.375
			c-0.463-0.123-0.919-0.224-1.367-0.302c-0.448-0.076-0.888-0.115-1.32-0.115c-1.297,0-2.34,0.239-3.127,0.718
			c-0.788,0.479-1.391,1.027-1.808,1.645c-0.417,0.618-0.694,1.236-0.834,1.854c-0.139,0.618-0.208,1.082-0.208,1.391v11.907h-5.561
			V740.746z"/>
		<path fill="#FFFFFF" d="M465.846,759.929h-0.139c-0.803,1.267-1.822,2.186-3.059,2.757c-1.234,0.571-2.594,0.856-4.076,0.856
			c-1.02,0-2.016-0.139-2.988-0.417c-0.975-0.277-1.84-0.694-2.596-1.251c-0.758-0.556-1.367-1.251-1.83-2.085
			c-0.463-0.834-0.695-1.807-0.695-2.919c0-1.204,0.216-2.231,0.648-3.081c0.434-0.849,1.012-1.56,1.738-2.131
			c0.725-0.571,1.566-1.027,2.525-1.367c0.957-0.34,1.953-0.595,2.988-0.765c1.035-0.169,2.076-0.278,3.127-0.324
			s2.039-0.069,2.967-0.069h1.389v-0.603c0-1.39-0.479-2.433-1.436-3.127c-0.959-0.695-2.178-1.043-3.66-1.043
			c-1.176,0-2.271,0.208-3.291,0.625c-1.02,0.418-1.898,0.981-2.641,1.691l-2.918-2.919c1.234-1.266,2.68-2.178,4.332-2.733
			s3.359-0.834,5.119-0.834c1.576,0,2.902,0.178,3.984,0.533s1.977,0.811,2.688,1.366c0.711,0.557,1.258,1.197,1.645,1.923
			c0.387,0.727,0.664,1.46,0.834,2.201s0.271,1.459,0.303,2.154c0.029,0.695,0.045,1.306,0.045,1.83v12.788h-5.004V759.929z
			 M465.521,753.024h-1.158c-0.771,0-1.637,0.031-2.594,0.093c-0.959,0.062-1.861,0.209-2.711,0.44s-1.568,0.572-2.154,1.02
			c-0.588,0.448-0.881,1.073-0.881,1.876c0,0.525,0.115,0.966,0.348,1.32c0.232,0.355,0.533,0.657,0.902,0.904
			c0.371,0.247,0.789,0.425,1.252,0.532c0.463,0.108,0.926,0.162,1.391,0.162c1.914,0,3.328-0.455,4.238-1.366
			c0.912-0.911,1.367-2.155,1.367-3.73V753.024z"/>
		<path fill="#FFFFFF" d="M475.438,733.194c0-0.896,0.33-1.676,0.996-2.34c0.662-0.664,1.506-0.996,2.523-0.996
			c1.02,0,1.877,0.316,2.572,0.949c0.695,0.634,1.043,1.43,1.043,2.387s-0.348,1.753-1.043,2.386
			c-0.695,0.634-1.553,0.95-2.572,0.95c-1.018,0-1.861-0.332-2.523-0.996C475.768,734.87,475.438,734.09,475.438,733.194z
			 M476.225,740.746h5.561v22.24h-5.561V740.746z"/>
		<path fill="#FFFFFF" d="M510.373,740.746v20.248c0,2.008-0.248,3.822-0.742,5.444c-0.494,1.621-1.258,2.995-2.293,4.123
			s-2.34,2-3.916,2.618c-1.574,0.617-3.443,0.927-5.605,0.927c-2.07,0-4.031-0.263-5.885-0.788s-3.566-1.482-5.143-2.872
			l3.336-4.541c1.111,1.02,2.27,1.807,3.475,2.363c1.205,0.556,2.596,0.834,4.17,0.834c1.328,0,2.449-0.186,3.359-0.557
			c0.912-0.37,1.637-0.88,2.178-1.528s0.928-1.43,1.158-2.34c0.232-0.912,0.348-1.923,0.348-3.035v-1.622h-0.092
			c-0.805,1.082-1.869,1.893-3.197,2.433s-2.688,0.812-4.078,0.812c-1.668,0-3.182-0.302-4.541-0.904
			c-1.359-0.602-2.523-1.413-3.498-2.432c-0.973-1.02-1.721-2.225-2.246-3.614s-0.787-2.873-0.787-4.448
			c0-1.637,0.246-3.166,0.74-4.587c0.494-1.42,1.221-2.656,2.178-3.707c0.957-1.05,2.107-1.876,3.451-2.479s2.881-0.903,4.611-0.903
			c1.574,0,3.041,0.309,4.4,0.927s2.441,1.606,3.244,2.965h0.094v-3.336H510.373z M498.512,745.194
			c-0.988,0-1.885,0.162-2.688,0.486s-1.49,0.772-2.062,1.344c-0.572,0.572-1.02,1.267-1.344,2.085
			c-0.324,0.819-0.486,1.723-0.486,2.711c0,0.896,0.162,1.729,0.486,2.502s0.781,1.452,1.367,2.038
			c0.586,0.588,1.281,1.051,2.086,1.391c0.803,0.34,1.668,0.51,2.594,0.51c1.02,0,1.938-0.17,2.758-0.51
			c0.818-0.34,1.512-0.795,2.084-1.367c0.572-0.571,1.012-1.258,1.32-2.062c0.309-0.803,0.465-1.668,0.465-2.595
			c0-1.946-0.588-3.521-1.762-4.727C502.156,745.797,500.551,745.194,498.512,745.194z"/>
		<path fill="#FFFFFF" d="M521.539,743.851h0.092c0.432-0.927,1.197-1.768,2.293-2.525c1.098-0.756,2.51-1.135,4.24-1.135
			c1.482,0,2.74,0.247,3.775,0.741s1.877,1.144,2.525,1.946c0.648,0.804,1.113,1.73,1.391,2.779c0.277,1.051,0.416,2.147,0.416,3.29
			v14.039h-5.559v-11.259c0-0.618-0.031-1.305-0.094-2.062c-0.062-0.756-0.225-1.466-0.486-2.131
			c-0.262-0.664-0.672-1.22-1.227-1.668c-0.557-0.447-1.314-0.672-2.271-0.672c-0.926,0-1.707,0.155-2.34,0.463
			c-0.633,0.31-1.158,0.727-1.574,1.251c-0.418,0.526-0.719,1.128-0.904,1.808s-0.277,1.39-0.277,2.131v12.14h-5.561v-35.028h5.561
			V743.851z"/>
		<path fill="#FFFFFF" d="M539.283,745.473v-4.727h4.586v-6.44h5.561v6.44h6.117v4.727h-6.117v9.729
			c0,1.112,0.209,1.992,0.625,2.642c0.418,0.648,1.244,0.973,2.48,0.973c0.492,0,1.033-0.054,1.621-0.162
			c0.586-0.108,1.049-0.285,1.391-0.533v4.68c-0.588,0.278-1.307,0.471-2.156,0.579s-1.598,0.162-2.246,0.162
			c-1.482,0-2.695-0.162-3.637-0.486c-0.943-0.324-1.684-0.818-2.225-1.482s-0.912-1.49-1.111-2.479
			c-0.201-0.988-0.303-2.132-0.303-3.429v-10.193H539.283z"/>
		<path fill="#FFFFFF" d="M569.631,745.473v-4.727h4.586v-6.44h5.561v6.44h6.117v4.727h-6.117v9.729
			c0,1.112,0.209,1.992,0.625,2.642c0.418,0.648,1.244,0.973,2.48,0.973c0.492,0,1.033-0.054,1.621-0.162
			c0.586-0.108,1.049-0.285,1.391-0.533v4.68c-0.588,0.278-1.307,0.471-2.156,0.579s-1.598,0.162-2.246,0.162
			c-1.482,0-2.695-0.162-3.637-0.486c-0.943-0.324-1.684-0.818-2.225-1.482s-0.912-1.49-1.111-2.479
			c-0.201-0.988-0.303-2.132-0.303-3.429v-10.193H569.631z"/>
		<path fill="#FFFFFF" d="M588.441,751.866c0-1.761,0.316-3.359,0.949-4.795c0.633-1.437,1.49-2.665,2.572-3.684
			c1.08-1.02,2.363-1.808,3.846-2.363s3.059-0.834,4.727-0.834s3.242,0.278,4.725,0.834s2.766,1.344,3.846,2.363
			c1.082,1.019,1.939,2.247,2.572,3.684c0.633,1.436,0.949,3.034,0.949,4.795s-0.316,3.359-0.949,4.796s-1.49,2.664-2.572,3.684
			c-1.08,1.019-2.363,1.807-3.846,2.362c-1.482,0.557-3.057,0.834-4.725,0.834s-3.244-0.277-4.727-0.834
			c-1.482-0.556-2.766-1.344-3.846-2.362c-1.082-1.02-1.939-2.247-2.572-3.684S588.441,753.627,588.441,751.866z M594.002,751.866
			c0,0.865,0.146,1.699,0.439,2.502c0.293,0.804,0.727,1.514,1.297,2.132c0.572,0.618,1.26,1.111,2.062,1.482
			c0.803,0.37,1.715,0.556,2.734,0.556s1.93-0.186,2.732-0.556c0.803-0.371,1.49-0.864,2.062-1.482
			c0.57-0.618,1.004-1.328,1.297-2.132c0.293-0.803,0.441-1.637,0.441-2.502c0-0.864-0.148-1.698-0.441-2.502
			c-0.293-0.803-0.727-1.513-1.297-2.131c-0.572-0.618-1.26-1.112-2.062-1.483c-0.803-0.37-1.713-0.556-2.732-0.556
			s-1.932,0.186-2.734,0.556c-0.803,0.371-1.49,0.865-2.062,1.483c-0.57,0.618-1.004,1.328-1.297,2.131
			C594.148,750.168,594.002,751.002,594.002,751.866z"/>
		<path fill="#FFFFFF" d="M627.129,740.746h6.115l6.209,15.43h0.094l5.559-15.43h5.793l-10.518,27.013
			c-0.402,1.05-0.842,1.969-1.32,2.757c-0.48,0.787-1.043,1.451-1.691,1.992c-0.648,0.54-1.414,0.941-2.295,1.205
			c-0.879,0.262-1.938,0.394-3.174,0.394c-1.451,0-2.871-0.186-4.262-0.556l0.695-5.005c0.432,0.154,0.887,0.286,1.367,0.395
			c0.479,0.107,0.965,0.162,1.459,0.162c0.678,0,1.25-0.062,1.715-0.186c0.463-0.124,0.855-0.317,1.18-0.579
			c0.326-0.263,0.596-0.603,0.812-1.02c0.215-0.417,0.447-0.919,0.693-1.506l1.066-2.641L627.129,740.746z"/>
		<path fill="#FFFFFF" d="M652.381,751.866c0-1.761,0.316-3.359,0.949-4.795c0.633-1.437,1.49-2.665,2.57-3.684
			c1.082-1.02,2.363-1.808,3.846-2.363c1.484-0.556,3.059-0.834,4.727-0.834s3.244,0.278,4.727,0.834s2.764,1.344,3.846,2.363
			c1.08,1.019,1.938,2.247,2.57,3.684c0.633,1.436,0.951,3.034,0.951,4.795s-0.318,3.359-0.951,4.796s-1.49,2.664-2.57,3.684
			c-1.082,1.019-2.363,1.807-3.846,2.362c-1.482,0.557-3.059,0.834-4.727,0.834s-3.242-0.277-4.727-0.834
			c-1.482-0.556-2.764-1.344-3.846-2.362c-1.08-1.02-1.938-2.247-2.57-3.684S652.381,753.627,652.381,751.866z M657.939,751.866
			c0,0.865,0.146,1.699,0.441,2.502c0.293,0.804,0.725,1.514,1.297,2.132c0.57,0.618,1.258,1.111,2.062,1.482
			c0.803,0.37,1.713,0.556,2.732,0.556s1.93-0.186,2.734-0.556c0.803-0.371,1.49-0.864,2.061-1.482
			c0.572-0.618,1.004-1.328,1.299-2.132c0.293-0.803,0.439-1.637,0.439-2.502c0-0.864-0.146-1.698-0.439-2.502
			c-0.295-0.803-0.727-1.513-1.299-2.131c-0.57-0.618-1.258-1.112-2.061-1.483c-0.805-0.37-1.715-0.556-2.734-0.556
			s-1.93,0.186-2.732,0.556c-0.805,0.371-1.492,0.865-2.062,1.483c-0.572,0.618-1.004,1.328-1.297,2.131
			C658.086,750.168,657.939,751.002,657.939,751.866z"/>
		<path fill="#FFFFFF" d="M701.354,762.986h-5.281v-3.567h-0.092c-0.527,1.111-1.33,2.077-2.41,2.896
			c-1.082,0.818-2.549,1.228-4.402,1.228c-1.482,0-2.74-0.239-3.775-0.718s-1.877-1.127-2.525-1.946
			c-0.648-0.817-1.111-1.753-1.391-2.803c-0.277-1.05-0.416-2.146-0.416-3.29v-14.039h5.561v11.259c0,0.619,0.029,1.306,0.092,2.062
			s0.225,1.467,0.486,2.131c0.262,0.665,0.664,1.221,1.205,1.668c0.539,0.448,1.305,0.672,2.293,0.672
			c0.928,0,1.707-0.154,2.34-0.463s1.158-0.726,1.576-1.251c0.416-0.525,0.717-1.127,0.902-1.808
			c0.186-0.679,0.279-1.39,0.279-2.131v-12.14h5.559V762.986z"/>
		<path fill="#FFFFFF" d="M706.959,759.743c0-0.988,0.363-1.838,1.09-2.549c0.725-0.71,1.598-1.065,2.617-1.065
			c0.988,0,1.854,0.341,2.596,1.02c0.74,0.68,1.111,1.514,1.111,2.502c0,0.989-0.363,1.838-1.088,2.548
			c-0.727,0.711-1.6,1.066-2.619,1.066c-0.494,0-0.965-0.093-1.412-0.278c-0.449-0.186-0.842-0.433-1.182-0.741
			s-0.611-0.679-0.811-1.112C707.061,760.701,706.959,760.237,706.959,759.743z"/>
	</g>
</g>
<g id="LOGO">
	<circle stroke="#FFFFFF" stroke-width="11.0881" stroke-miterlimit="10" cx="450" cy="303.95" r="198.477"/>
	<g>
		<path fill="#FFF100" d="M334.954,214.951h48.599c6.755,0,13.28,0.691,19.578,2.073c6.294,1.382,11.898,3.685,16.814,6.91
			c4.912,3.225,8.828,7.45,11.747,12.668c2.915,5.222,4.376,11.671,4.376,19.347c0,8.907-2.498,16.547-7.485,22.917
			c-4.992,6.374-12.092,10.635-21.305,12.783v0.46c11.516,0.921,20.535,4.952,27.063,12.092c6.525,7.14,9.789,16.699,9.789,28.675
			c0,2.613-0.655,6.449-1.958,11.517c-1.307,5.067-4.031,10.098-8.177,15.086c-4.146,4.991-10.134,9.328-17.965,13.013
			s-18.275,5.528-31.324,5.528h-49.75V214.951z M351.538,286.353h33.397c3.991,0,7.946-0.497,11.862-1.498
			c3.916-0.997,7.446-2.648,10.595-4.952c3.146-2.303,5.718-5.258,7.716-8.868c1.994-3.606,2.994-8.022,2.994-13.244
			c0-1.688-0.345-4.067-1.037-7.14c-0.691-3.07-2.228-6.14-4.606-9.213c-2.382-3.07-5.873-5.719-10.479-7.946
			c-4.607-2.224-10.826-3.34-18.657-3.34h-31.785V286.353z M351.538,362.82h31.785c5.989,0,11.592-0.612,16.814-1.842
			c5.218-1.228,9.749-3.109,13.589-5.643c3.836-2.534,6.87-5.719,9.098-9.559c2.224-3.836,3.34-8.443,3.34-13.819
			c0-10.746-3.455-18.732-10.365-23.954c-6.91-5.218-17.044-7.831-30.403-7.831h-33.858V362.82z"/>
		<path fill="#FFFFFF" d="M463.012,270.229h15.203v17.965h0.459c2.455-3.685,5.375-6.831,8.754-9.443
			c3.375-2.609,6.91-4.757,10.594-6.449c3.686-1.688,7.486-2.915,11.402-3.685c3.914-0.767,7.637-1.151,11.17-1.151
			c8.443,0,16.158,1.421,23.148,4.261c6.984,2.843,13.014,6.795,18.08,11.862c5.066,5.067,9.02,11.056,11.861,17.965
			c2.84,6.91,4.262,14.435,4.262,22.572c0,8.14-1.422,15.662-4.262,22.572c-2.842,6.91-6.795,12.898-11.861,17.965
			s-11.096,9.022-18.08,11.862c-6.99,2.839-14.705,4.261-23.148,4.261c-3.533,0-7.256-0.385-11.17-1.151
			c-3.916-0.77-7.717-1.994-11.402-3.685c-3.684-1.688-7.219-3.836-10.594-6.449c-3.379-2.609-6.299-5.758-8.754-9.443h-0.459
			v84.299h-15.203V270.229z M561.361,324.126c0-5.989-0.961-11.592-2.879-16.814c-1.922-5.218-4.646-9.75-8.176-13.589
			c-3.535-3.836-7.795-6.87-12.783-9.098c-4.992-2.224-10.635-3.34-16.93-3.34c-6.297,0-12.057,1.116-17.273,3.34
			c-5.223,2.228-9.754,5.261-13.59,9.098c-3.84,3.84-6.834,8.371-8.982,13.589c-2.152,5.222-3.225,10.825-3.225,16.814
			c0,5.988,1.072,11.595,3.225,16.813c2.148,5.222,5.143,9.753,8.982,13.589c3.836,3.84,8.367,6.874,13.59,9.098
			c5.217,2.228,10.977,3.34,17.273,3.34c6.295,0,11.938-1.112,16.93-3.34c4.988-2.224,9.248-5.258,12.783-9.098
			c3.529-3.836,6.254-8.367,8.176-13.589C560.4,335.721,561.361,330.114,561.361,324.126z"/>
	</g>
	<g>
	</g>
	<g>
	</g>
	<g>
	</g>
	<g>
	</g>
	<g>
	</g>
	<g>
	</g>
</g>
</svg>
