<?xml version="1.0" encoding="utf-8"?>
<!-- Generator: Adobe Illustrator 16.0.0, SVG Export Plug-In . SVG Version: 6.00 Build 0)  -->
<!DOCTYPE svg PUBLIC "-//W3C//DTD SVG 1.1//EN" "http://www.w3.org/Graphics/SVG/1.1/DTD/svg11.dtd">
<svg version="1.1" id="Layer_1" xmlns="http://www.w3.org/2000/svg" xmlns:xlink="http://www.w3.org/1999/xlink" x="0px" y="0px"
	 width="383.848px" height="93.42px" viewBox="0 0 383.848 93.42" enable-background="new 0 0 383.848 93.42" xml:space="preserve">
<g>
	<path fill="#FBF522" d="M0,4.32h22.14c2.759,0,5.324,0.33,7.695,0.989c2.37,0.661,4.41,1.636,6.12,2.926
		c1.71,1.291,3.06,2.94,4.05,4.949c0.99,2.012,1.485,4.365,1.485,7.065c0,3.66-1.021,6.646-3.06,8.955
		c-2.041,2.311-4.68,4.005-7.92,5.085v0.18c1.919,0.121,3.719,0.616,5.4,1.485c1.679,0.87,3.134,2.011,4.365,3.42
		c1.229,1.41,2.205,3.046,2.925,4.905c0.72,1.86,1.08,3.87,1.08,6.029c0,2.881-0.585,5.416-1.755,7.605
		c-1.17,2.191-2.776,4.036-4.815,5.535c-2.041,1.5-4.41,2.641-7.11,3.42c-2.7,0.78-5.611,1.17-8.73,1.17H0V4.32z M8.64,30.78h11.79
		c1.62,0,3.15-0.165,4.59-0.495c1.44-0.329,2.7-0.885,3.78-1.665c1.08-0.779,1.935-1.77,2.565-2.97c0.63-1.2,0.945-2.669,0.945-4.41
		c0-2.521-0.81-4.71-2.43-6.57c-1.62-1.859-4.171-2.79-7.65-2.79H8.64V30.78z M8.64,60.48h12.69c1.319,0,2.774-0.136,4.365-0.405
		c1.589-0.271,3.074-0.811,4.455-1.62c1.38-0.81,2.55-1.904,3.51-3.285c0.959-1.38,1.44-3.209,1.44-5.49
		c0-3.779-1.23-6.614-3.69-8.505c-2.461-1.89-5.791-2.835-9.99-2.835H8.64V60.48z"/>
	<path fill="#FBF522" d="M51.929,46.71c0-3.119,0.585-6.03,1.755-8.729c1.17-2.7,2.774-5.07,4.815-7.11
		c2.039-2.039,4.439-3.646,7.2-4.815c2.759-1.17,5.729-1.755,8.91-1.755c3.18,0,6.149,0.585,8.91,1.755
		c2.759,1.17,5.159,2.776,7.2,4.815c2.039,2.04,3.645,4.41,4.815,7.11c1.17,2.699,1.755,5.61,1.755,8.729
		c0,3.12-0.585,6.046-1.755,8.775c-1.17,2.73-2.776,5.101-4.815,7.109c-2.041,2.012-4.441,3.601-7.2,4.771
		c-2.761,1.17-5.73,1.755-8.91,1.755c-3.181,0-6.151-0.585-8.91-1.755c-2.76-1.17-5.161-2.759-7.2-4.771
		c-2.041-2.009-3.645-4.379-4.815-7.109C52.514,52.756,51.929,49.83,51.929,46.71z M60.569,46.71c0,2.16,0.329,4.155,0.99,5.985
		c0.659,1.831,1.589,3.391,2.79,4.68c1.199,1.291,2.669,2.311,4.41,3.06c1.74,0.751,3.69,1.125,5.85,1.125s4.109-0.374,5.85-1.125
		c1.739-0.749,3.209-1.769,4.41-3.06c1.199-1.289,2.129-2.849,2.79-4.68c0.66-1.83,0.99-3.825,0.99-5.985s-0.331-4.154-0.99-5.985
		c-0.661-1.829-1.59-3.389-2.79-4.68c-1.201-1.289-2.671-2.309-4.41-3.06c-1.741-0.75-3.69-1.125-5.85-1.125s-4.11,0.375-5.85,1.125
		c-1.741,0.751-3.21,1.771-4.41,3.06c-1.201,1.291-2.131,2.851-2.79,4.68C60.898,42.556,60.569,44.55,60.569,46.71z"/>
	<path fill="#FBF522" d="M104.759,46.71c0-3.119,0.585-6.03,1.755-8.729c1.17-2.7,2.774-5.07,4.815-7.11
		c2.039-2.039,4.439-3.646,7.2-4.815c2.759-1.17,5.729-1.755,8.91-1.755c3.18,0,6.149,0.585,8.91,1.755
		c2.759,1.17,5.159,2.776,7.2,4.815c2.039,2.04,3.645,4.41,4.815,7.11c1.17,2.699,1.755,5.61,1.755,8.729
		c0,3.12-0.585,6.046-1.755,8.775c-1.17,2.73-2.776,5.101-4.815,7.109c-2.041,2.012-4.441,3.601-7.2,4.771
		c-2.761,1.17-5.73,1.755-8.91,1.755c-3.181,0-6.151-0.585-8.91-1.755c-2.76-1.17-5.161-2.759-7.2-4.771
		c-2.041-2.009-3.645-4.379-4.815-7.109C105.344,52.756,104.759,49.83,104.759,46.71z M113.399,46.71c0,2.16,0.329,4.155,0.99,5.985
		c0.659,1.831,1.589,3.391,2.79,4.68c1.199,1.291,2.669,2.311,4.41,3.06c1.74,0.751,3.69,1.125,5.85,1.125s4.109-0.374,5.85-1.125
		c1.739-0.749,3.209-1.769,4.41-3.06c1.199-1.289,2.129-2.849,2.79-4.68c0.66-1.83,0.99-3.825,0.99-5.985s-0.331-4.154-0.99-5.985
		c-0.661-1.829-1.59-3.389-2.79-4.68c-1.201-1.289-2.671-2.309-4.41-3.06c-1.741-0.75-3.69-1.125-5.85-1.125s-4.11,0.375-5.85,1.125
		c-1.741,0.751-3.21,1.771-4.41,3.06c-1.201,1.291-2.131,2.851-2.79,4.68C113.728,42.556,113.399,44.55,113.399,46.71z"/>
	<path fill="#FBF522" d="M158.308,0h8.1v43.92l18.36-18.45h11.25l-19.89,19.351l21.601,23.22h-11.521l-19.8-22.14v22.14h-8.1V0z"/>
	<path fill="#FFFFFF" d="M205.289,25.38h8.1v6.12h0.18c1.561-2.279,3.705-4.05,6.436-5.31c2.729-1.261,5.535-1.891,8.414-1.891
		c3.299,0,6.285,0.571,8.955,1.71c2.67,1.141,4.951,2.731,6.84,4.771c1.891,2.04,3.344,4.425,4.365,7.154
		c1.02,2.731,1.531,5.656,1.531,8.775c0,3.181-0.512,6.136-1.531,8.865c-1.021,2.73-2.475,5.101-4.365,7.109
		c-1.889,2.012-4.17,3.586-6.84,4.726c-2.67,1.139-5.656,1.71-8.955,1.71c-3.059,0-5.939-0.646-8.639-1.936
		c-2.701-1.289-4.771-3.044-6.211-5.265h-0.18v31.5h-8.1V25.38z M227.428,31.86c-2.16,0-4.109,0.375-5.85,1.125
		c-1.74,0.751-3.211,1.771-4.41,3.06c-1.201,1.291-2.131,2.851-2.789,4.68c-0.662,1.831-0.99,3.825-0.99,5.985
		s0.328,4.155,0.99,5.985c0.658,1.831,1.588,3.391,2.789,4.68c1.199,1.291,2.67,2.311,4.41,3.06c1.74,0.751,3.689,1.125,5.85,1.125
		s4.109-0.374,5.852-1.125c1.738-0.749,3.209-1.769,4.408-3.06c1.201-1.289,2.131-2.849,2.791-4.68c0.66-1.83,0.99-3.825,0.99-5.985
		s-0.33-4.154-0.99-5.985c-0.66-1.829-1.59-3.389-2.791-4.68c-1.199-1.289-2.67-2.309-4.408-3.06
		C231.537,32.235,229.588,31.86,227.428,31.86z"/>
	<path fill="#FFFFFF" d="M266.668,49.68c0,1.86,0.404,3.556,1.215,5.085c0.809,1.53,1.873,2.835,3.195,3.915
		c1.318,1.08,2.848,1.921,4.59,2.521c1.738,0.601,3.539,0.899,5.398,0.899c2.521,0,4.711-0.585,6.57-1.755s3.57-2.714,5.131-4.635
		l6.119,4.68c-4.5,5.821-10.799,8.73-18.9,8.73c-3.359,0-6.404-0.571-9.135-1.71c-2.73-1.14-5.039-2.714-6.93-4.726
		c-1.889-2.009-3.346-4.379-4.365-7.109c-1.02-2.729-1.529-5.685-1.529-8.865c0-3.18,0.555-6.134,1.664-8.865
		c1.111-2.729,2.641-5.099,4.592-7.109c1.947-2.01,4.273-3.585,6.975-4.726c2.699-1.139,5.639-1.71,8.82-1.71
		c3.779,0,6.975,0.661,9.584,1.98c2.609,1.32,4.754,3.046,6.436,5.175c1.678,2.131,2.895,4.531,3.645,7.2
		c0.75,2.67,1.125,5.386,1.125,8.145v2.88H266.668z M292.227,43.2c-0.061-1.8-0.346-3.449-0.854-4.95
		c-0.512-1.499-1.275-2.804-2.295-3.915c-1.021-1.109-2.295-1.979-3.826-2.61c-1.529-0.63-3.316-0.944-5.355-0.944
		c-1.979,0-3.795,0.375-5.443,1.125c-1.652,0.751-3.047,1.726-4.186,2.925c-1.141,1.201-2.025,2.535-2.656,4.005
		c-0.629,1.471-0.943,2.925-0.943,4.365H292.227z"/>
	<path fill="#FFFFFF" d="M310.857,25.38h8.1v6.57h0.182c0.539-1.14,1.26-2.174,2.158-3.105c0.9-0.93,1.904-1.724,3.016-2.385
		c1.109-0.659,2.324-1.184,3.645-1.575c1.32-0.39,2.641-0.585,3.961-0.585c1.318,0,2.52,0.181,3.6,0.54l-0.359,8.73
		c-0.662-0.181-1.32-0.329-1.98-0.45c-0.66-0.119-1.32-0.18-1.98-0.18c-3.959,0-6.99,1.11-9.09,3.33s-3.15,5.67-3.15,10.35v21.42
		h-8.1V25.38z"/>
	<path fill="#FFFFFF" d="M344.428,0h8.1v43.92l18.359-18.45h11.25L362.248,44.82l21.6,23.22h-11.521L352.527,45.9v22.14h-8.1V0z"/>
</g>
<g>
</g>
<g>
</g>
<g>
</g>
<g>
</g>
<g>
</g>
<g>
</g>
<g>
</g>
<g>
</g>
<g>
</g>
<g>
</g>
<g>
</g>
<g>
</g>
<g>
</g>
<g>
</g>
<g>
</g>
</svg>
