<?xml version="1.0" encoding="utf-8"?>
<!-- Generator: Adobe Illustrator 18.1.1, SVG Export Plug-In . SVG Version: 6.00 Build 0)  -->
<svg version="1.1" id="Layer_1" xmlns="http://www.w3.org/2000/svg" xmlns:xlink="http://www.w3.org/1999/xlink" x="0px" y="0px"
	 viewBox="0 0 576 72" enable-background="new 0 0 576 72" xml:space="preserve">
<g>
	<path fill="#EE3524" d="M50.5,10.1L50.5,10.1c2.2,0.4,4.1,3.4,4.1,6.7c0,4.3-4.5,7.7-4.3,11.4h0c1.1-5.1,8.9-8.1,7.3-13.7
		c2.2,1.5,3.3,5.5,3.6,8.6c1-3.2,5.3-5.2,6-7.6h0v16H32.9l0-8.2c0-4.9,8.5-4.8,7.8-9.4l0,0c2.5,4.1-1.4,7.6-0.7,10.2h0
		c2-7.8,9.5-5.7,11.2-10.7C51.7,12.1,51.2,10.6,50.5,10.1z"/>
	<path fill="#007CC3" d="M38.8,33.2c-2,2-4.1,2.9-5.9,2.2V50h34.4V34.5c-2.9,3.5-6.5,2-6.1-0.9v0c-5.4,6.3-8.4,2.8-7.6,0.2v0
		c-4.9,5.9-7.9,2.4-6.5-0.5l0,0C40.9,40.6,37,37.9,38.8,33.2L38.8,33.2z"/>
	<g>
		<path fill="#EE3524" d="M78.6,23.7c0-2.1-0.3-3.6-4.2-3.7l-0.2-0.4v-0.8c0-0.3,0.4-0.4,0.8-0.4c1.3,0,4,0.2,5.9,0.2
			c1.8,0,3.6-0.2,5.5-0.2c0.9,0,1.2,0,1.2,0.5v0.7c0,0.2-0.5,0.3-1.3,0.3c-1.8,0-3.7,0.1-3.7,2.3v10.1h19.2V24c0-3.1,0-3.8-3.6-4
			c-0.5,0-0.6-0.2-0.6-0.7v-0.5l0.2-0.2c1.5,0.1,4.3,0.2,7.1,0.2c2.9,0,4-0.1,5.3-0.2l0.2,0.3v0.8c0,0.4-0.4,0.4-1.1,0.4
			c-2.3,0-3.5,0.4-3.5,3v22.1c0,3.2,1.7,3.5,4.3,3.5c0.2,0,0.2,0.7,0.2,1.2c0,0.2-0.2,0.3-1.4,0.3c-1.8,0-3.6-0.2-5.4-0.2
			c-1.7,0-4.4,0.2-5,0.2c-1.2,0-1.4-0.1-1.4-0.3v-1l0.2-0.2c4.3,0,4.4-0.9,4.4-4V34.1H82.6v11.3c0,2.5,0.7,3.2,4,3.2
			c0.5,0,0.6,0.1,0.6,0.5v0.7c0,0.3-0.4,0.3-1.4,0.3c-1.8,0-3.7-0.2-5.5-0.2c-1.7,0-3.4,0.2-5.1,0.2c-0.3,0-0.7,0-0.9-0.3v-1
			l0.3-0.2c2.1,0,4.1-0.2,4.1-2.5V23.7z"/>
		<path fill="#EE3524" d="M124.5,37.3c0-2.5-0.3-4.3-3.6-4.3c-1.2,0-3.4,0.4-3.4,1.7c0,0.3,0.1,0.8,0.2,1l-2.8,1.6
			c-0.1-0.4-0.3-0.8-0.3-1.3c0-1.4,1.4-2.5,2.4-3.1l4-2.3c0.5-0.3,0.8-0.4,0.9-0.4c3.7,0,5.6,1.8,5.6,5.5V45c0,0.9,0,2.8,1.4,2.8
			c0.8,0,1-0.4,1.6-1.3l0.8,0.3c-0.5,2.1-1.7,3.9-3.6,3.9c-3,0-3.4-2.8-3.3-3.9c-1.7,1.7-3.9,3.9-6.6,3.9c-2.6,0-3.9-3.4-3.9-5.4
			c0-0.8,0.8-2.2,4.6-3.6l5.9-2.3V37.3z M124.4,40.7l-4.4,2c-0.6,0.3-2.2,1.1-2.2,2.3c0,1.2,0.6,3.5,2.1,3.5c1.6,0,3.1-1.6,4.2-2.6
			l0.4-0.4V40.7z"/>
		<path fill="#EE3524" d="M140,45.4c0,1.8,0,3.5,3.4,3.5c0.3,0,0.3,0.2,0.3,0.6c0,0.4,0,0.6-0.4,0.6c-1.6,0-3.1-0.2-4.7-0.2
			c-1.7,0-3.5,0.2-5.2,0.2c-0.2,0-0.2-0.1-0.2-0.4v-0.4c0-0.4,0.1-0.5,1-0.5c2-0.1,2.3-0.8,2.3-3.2v-9.9c0-0.8-0.4-1.4-1.3-1.7
			c-0.2,0-1.3-0.4-1.3-1c0-0.3,0.1-0.4,0.6-0.6l3.3-1.5c1-0.4,1.7-0.8,1.9-0.8c0.3,0,0.4,0.3,0.4,0.4l-0.1,4.6l0.1,0.1
			c1.4-1.8,3.5-5.1,6.2-5.1c1.6,0,2.5,0.8,2.5,2.4c0,0.9-0.9,1.7-1.8,1.7c-1.2,0-1.7-0.8-3-0.8c-1.1,0-2.5,1.5-3.4,2.6l-0.7,0.8
			V45.4z"/>
		<path fill="#EE3524" d="M153.4,36.8c0-2-0.1-2.4-1-2.8l-1.6-0.7c-0.1,0-0.1-0.1-0.1-0.3c0-0.4,0-0.4,0.4-0.5l5.5-2.6
			c0.3,0.1,0.3,0.4,0.3,0.6c0,0.8-0.1,1.7,0,2.6c1.5-0.8,5.2-3,6.7-3c4.9,0,8.4,4.9,8.4,9.4c0,8.6-8.7,11.3-12.2,11.3
			c-1,0-1.9-0.3-2.9-0.4v6.9c0,3,0.8,3.2,4,3.4c0.2,0,0.3,0.1,0.3,0.3v0.4c0,0.3-0.1,0.5-0.2,0.5c-1.9,0-3.8-0.2-5.9-0.2
			c-2,0-3.8,0.2-4.9,0.2c-0.4,0-0.4-0.2-0.4-0.6V61c0-0.1,0-0.4,0.1-0.4c3.4-0.3,3.6-0.4,3.6-4V36.8z M156.8,45.6
			c0,2.3,2.3,3.1,4.4,3.1c4.6,0,6.9-3.2,6.9-7.7c0-3.9-2.3-8-6.6-8c-1.8,0-3.2,0.4-4.7,1.4V45.6z"/>
		<path fill="#EE3524" d="M179.8,38.2c-0.1,0.6-0.1,1.3-0.1,1.9c0,3.9,3,7.8,7.1,7.8c1.7,0,2.8-0.6,5.1-2.6l0.8,0.6
			c-1.8,2.9-4.5,5-8,5c-4.6,0-8.3-4.4-8.3-9.3c0-5.3,3.6-11.3,9.4-11.3c4,0,6.8,3,6.8,6.7v1.4H179.8z M187.6,36.9
			c0.6,0,1.3-0.8,1.3-1.6c0-2.2-1.7-3.8-3.8-3.8c-2.7,0-4.5,3.1-5,5.6L187.6,36.9z"/>
		<path fill="#EE3524" d="M202.1,45.4c0,1.8,0,3.5,3.4,3.5c0.3,0,0.3,0.2,0.3,0.6c0,0.4,0,0.6-0.4,0.6c-1.6,0-3.1-0.2-4.7-0.2
			c-1.7,0-3.5,0.2-5.2,0.2c-0.2,0-0.2-0.1-0.2-0.4v-0.4c0-0.4,0.1-0.5,1-0.5c2-0.1,2.3-0.8,2.3-3.2v-9.9c0-0.8-0.4-1.4-1.3-1.7
			c-0.2,0-1.3-0.4-1.3-1c0-0.3,0.1-0.4,0.6-0.6l3.3-1.5c1-0.4,1.7-0.8,1.9-0.8c0.3,0,0.4,0.3,0.4,0.4l-0.1,4.6l0.1,0.1
			c1.4-1.8,3.5-5.1,6.2-5.1c1.6,0,2.5,0.8,2.5,2.4c0,0.9-0.9,1.7-1.8,1.7c-1.2,0-1.7-0.8-3-0.8c-1.1,0-2.5,1.5-3.4,2.6l-0.7,0.8
			V45.4z"/>
		<path fill="#007CC3" d="M243,48.3c-3,1.5-6.6,2.4-10.7,2.4c-8.8,0-18.5-6.2-18.5-16.5c0-9.8,9.1-16.3,18.2-16.3
			c3,0,8.1,1,10.7,2.6l0.6,5.2c0,0.4,0.1,0.8,0.1,1.1c0,0.3-0.7,0.3-0.9,0.3c-0.2,0-0.6-0.7-1.2-2.2c-1.3-3.1-5.2-5.2-9.2-5.2
			c-8.5,0-13.4,7-13.4,15.1c0,7.3,5.9,14.3,13.4,14.3c2.6,0,6-0.9,7.8-2.4c1.4-1.1,2-3.1,2.5-4.8c0-0.1,0.3-0.1,0.5-0.1
			c0.4,0,1,0,0.9,0.7L243,48.3z"/>
		<path fill="#007CC3" d="M259.2,30.1c5.3,0,10,4.6,10,10c0,6.4-5.3,10.6-11.2,10.6c-5.4,0-9.7-4.6-9.7-10
			C248.3,34.7,253.2,30.1,259.2,30.1z M258.1,31.5c-4.5,0-5.9,4.2-5.9,8.5c0,3.9,2.1,9.2,6.7,9.2c4.4,0,6.1-3.9,6.1-7.7
			C265.1,37,263.6,31.5,258.1,31.5z"/>
		<path fill="#007CC3" d="M279.1,46.7c0,1,0,2.1,3.1,2.1c0.1,0,0.1,0.3,0.1,0.6c0,0.4,0,0.6-0.1,0.6c-1.7,0-3.7-0.2-4.6-0.2
			c-1.6,0-3.2,0.2-4.8,0.2c-0.3,0-0.4-0.1-0.4-0.3v-0.4c0-0.5,0.1-0.5,0.8-0.5c2,0,2.7-0.3,2.7-2.4V22.3c0-2.8,0-3-1.7-3.7
			c-0.7-0.3-1.3-0.5-1.3-0.8c0-0.4,0.4-0.5,2.3-1.2l3.3-1.2c0.1,0,0.5-0.2,0.7-0.2c0.3,0,0.3,0.4,0.3,0.7c0,2.1-0.1,4.3-0.1,6.5
			V46.7z"/>
		<path fill="#007CC3" d="M291.6,46.7c0,1,0,2.1,3.1,2.1c0.1,0,0.1,0.3,0.1,0.6c0,0.4,0,0.6-0.1,0.6c-1.7,0-3.7-0.2-4.6-0.2
			c-1.6,0-3.2,0.2-4.8,0.2c-0.3,0-0.4-0.1-0.4-0.3v-0.4c0-0.5,0.1-0.5,0.8-0.5c2,0,2.7-0.3,2.7-2.4V22.3c0-2.8,0-3-1.7-3.7
			c-0.7-0.3-1.3-0.5-1.3-0.8c0-0.4,0.4-0.5,2.3-1.2l3.3-1.2c0.1,0,0.5-0.2,0.7-0.2c0.3,0,0.3,0.4,0.3,0.7c0,2.1-0.1,4.3-0.1,6.5
			V46.7z"/>
		<path fill="#007CC3" d="M304,46.7c0,1,0,2.1,3.1,2.1c0.1,0,0.1,0.3,0.1,0.6c0,0.4,0,0.6-0.1,0.6c-1.7,0-3.7-0.2-4.6-0.2
			c-1.6,0-3.2,0.2-4.8,0.2c-0.3,0-0.4-0.1-0.4-0.3v-0.4c0-0.5,0.1-0.5,0.8-0.5c2,0,2.7-0.3,2.7-2.4v-9.2c0-2.8,0-3-1.7-3.7
			c-0.7-0.3-1.3-0.5-1.3-0.8c0-0.4,0.4-0.5,2.3-1.2l3.3-1.2c0.1,0,0.5-0.2,0.7-0.2c0.3,0,0.3,0.4,0.3,0.7c0,2.1-0.1,4.3-0.1,6.5
			V46.7z M302.2,16.8c1.4,0,2.5,1.1,2.5,2.5c0,1.4-1.1,2.5-2.5,2.5c-1.4,0-2.5-1.1-2.5-2.5C299.7,17.9,300.8,16.8,302.2,16.8z"/>
		<path fill="#007CC3" d="M313,35.1c0-0.8-0.4-1.4-0.8-1.5l-1.5-0.4c-0.1,0-0.3-0.2-0.3-0.5c0-0.1,0-0.4,0.3-0.5
			c2.2-0.6,5.3-2.2,5.5-2.2c0.2,0,0.2,0.4,0.2,0.5v3.1c2.1-1.7,4.5-3.6,7.3-3.6c3.9,0,5.5,2.2,5.5,5.9v10.9c0,1.9,1.5,1.9,3,1.9
			c0.1,0,0.2,0.1,0.2,0.3V50c0,0.1-0.1,0.1-0.2,0.1c-1.8,0-3-0.2-4.4-0.2c-1.6,0-3.2,0.2-4.8,0.2c-0.3,0-0.3-0.8-0.3-1
			c0-0.1,0.2-0.3,0.4-0.3c0.7,0,2.8,0,2.8-1.3V37c0-2.8-0.8-4.3-4-4.3c-1.9,0-4.2,1.1-5.5,2.4v11.6c0,1,0,2.1,3.1,2.1
			c0.1,0,0.1,0.3,0.1,0.6c0,0.4,0,0.6-0.1,0.6c-1.7,0-3.7-0.2-4.6-0.2c-1.6,0-3.2,0.2-4.8,0.2c-0.3,0-0.4-0.1-0.4-0.3v-0.4
			c0-0.5,0.1-0.5,0.8-0.5c2,0,2.7-0.3,2.7-2.4V35.1z"/>
		<path fill="#007CC3" d="M347.7,35.6h-1.1c-0.5-2-1.6-4.1-3.9-4.1c-2.1,0-3.7,1-3.7,3.1c0,1.7,2.4,2.8,4.7,4.1
			c2.4,1.3,4.7,2.9,4.7,5.7c0,3.9-3.6,6.3-7.2,6.3c-2.9,0-5.7-1.3-5.8-2l-0.2-4.1l1.3-0.1c0.2,0.2,0.2,0.5,0.3,0.8
			c0.5,1.8,2.5,3.9,4.5,3.9c2.3,0,3.7-1.4,3.7-3.7c0-1.5-2.1-3-3.2-3.6c-2.6-1.3-5.9-2.9-5.9-6.3c0-3.7,3.4-5.6,6.8-5.6
			c1.8,0,3.6,0.5,5.3,1.4L347.7,35.6z"/>
		<path fill="#878787" d="M360.4,26c0.5-2.1,1-3.9,1-4.2c0-1.2-0.9-1.6-2-1.6c-0.7,0-1.4,0.2-1.6,0.2c-0.1,0-0.2-0.1-0.2-0.5
			c0-0.7,0.1-0.9,0.8-0.9c4-0.3,6.1-0.4,9.7-0.4c5,0,9.8,2.1,9.8,7.6c0,5.3-4.2,10.3-9.7,10.3c-1.9,0-3.8-0.4-4.6-1.3l0.7-1
			c0.6,0.4,1.7,0.8,3,0.8c3.6,0,6.3-5.3,6.3-8.9c0-3.7-2.5-5.9-6.3-5.9c-1.3,0-1.9,0.1-2.1,1.1l-6.5,24.4c-0.1,0.3-0.4,1.4-0.4,1.7
			c0,1.1,1.4,1.2,2.8,1.2h0.6c0.3,0,0.4,0.1,0.4,0.4c0,0.3-0.2,0.6-0.3,0.9c-0.1,0.2-0.5,0.2-0.8,0.2c-0.8,0-3.2-0.2-5.5-0.2
			c-2.1,0-4.2,0.3-4.8,0.2c-0.2,0-0.2-0.1-0.2-0.3c0-0.6,0.1-1.2,0.4-1.2c2.8,0,3.4-0.4,4-2.5L360.4,26z"/>
		<path fill="#878787" d="M380.9,34.9c1.5-1.4,4-4.8,6.2-4.8c0.9,0,1.6,0.4,1.6,1.4c0,0.6-0.7,2.1-0.8,2.7l-2.9,7.3
			c-0.8,1.9-1.4,3.4-1.4,3.8c0,0.4,0.3,0.8,0.8,0.8c1.7,0,8.9-9.4,10.4-11.1c1.1-1.3,2-3.1,3-4.5c0.3-0.4,0.7-0.4,1.1-0.4
			c0.6,0,1.1,0.7,1.1,1.2c0,0.8-5.1,12.9-5.1,14.9c0,0.5,0.4,0.8,0.7,0.8c1.5,0,3.7-3.2,4.6-4.5c0.3,0,0.8,0.4,0.8,0.7
			c-1.3,2.4-5.6,7.6-8.4,7.6c-0.8,0-1.4-0.8-1.4-1.7c0-1.3,3.4-9.7,4-11.4h-0.1c-1.8,2.2-11.7,13.1-13.8,13.1
			c-0.8,0-1.5-0.8-1.5-1.6c0-3.2,5.1-13.2,5.1-14.6c0-0.4-0.4-0.7-0.6-0.7c-0.6,0-2.1,1.4-2.5,1.9L380.9,34.9z"/>
		<path fill="#878787" d="M409.6,39.5L409.6,39.5c2.7-3.3,7.3-9.5,11.8-9.5c2.6,0,4.1,2.1,4.1,4.6c0,6.8-10.6,16.1-17,16.1
			c-1.7,0-4.1-0.8-4.1-2.9c0-1,3.3-10.9,3.8-12.8c0.2-0.8,4.2-14.3,4.2-16.1c0-1.3-1.1-1.6-2.8-1.7l0.1-1c1.9-0.2,6-1,6.8-1
			c0.2,0,0.5,0,0.6,0.2L409.6,39.5z M419.8,32.3c-3.2,0-12,10.2-12,14.6c0,1.3,1.4,1.8,2.5,1.8c4,0,11.7-10,11.7-13.9
			C421.9,33.1,421.1,32.3,419.8,32.3z"/>
		<path fill="#878787" d="M436,23c0.4-1.2,0.8-3.3,0.8-3.6c0-1.4-1.5-1.8-2.6-2l0.3-1c2.2-0.3,6.2-1.3,6.7-1.3
			c0.2,0,0.3,0.1,0.3,0.3c0,0.2-0.2,1-0.7,2.6l-6.9,23.5c-0.6,2-1.2,3.9-1.2,4.9c0,0.6,0.4,1,1,1c1.4,0,3.3-2.5,4.3-3.4h0.2l0.7,0.7
			v0.1c-1.5,2.1-5.3,6-8.1,6c-1,0-1.9-0.8-1.9-2c0-0.2,0.3-1.3,0.6-2.6L436,23z"/>
		<path fill="#878787" d="M442,34.4c0.8-1.4,4.2-4.3,6-4.3c1.5,0,2.2,0.7,2.2,2.1c0,1.5-5.1,13.2-5.1,14.5c0,0.5,0.4,0.9,1.1,0.9
			c1.4,0,3.6-3.1,4.6-4.1c0.2,0,0.8,0.5,0.8,0.7c-1.5,2.4-5,6.5-8,6.5c-1.3,0-2.3-0.6-2.3-2c0-1.8,5.1-12.8,5.1-14.7
			c0-0.5-0.3-0.8-0.8-0.8c-0.8,0-2.1,1.1-2.7,1.9L442,34.4z M450.6,17.9c1.2,0,2.1,0.9,2.1,2.1c0,1.2-0.9,2.1-2.1,2.1
			c-1.2,0-2.1-0.9-2.1-2.1C448.6,18.8,449.5,17.9,450.6,17.9z"/>
		<path fill="#878787" d="M462.6,30.1c1.3,0,3.6,0.4,3.6,2.2c0,0.9-0.7,1.8-1.4,1.8c-1.4,0-1.4-2.2-3.6-2.2c-1.4,0-2.8,1.6-2.8,2.9
			c0,2,5.9,6.3,5.9,8.9c0,3.3-4,7.1-7.4,7.1c-2.1,0-4-0.3-4-2.8c0-0.9,0.8-1.6,1.5-1.6c1.4,0,1.5,1.8,3.8,1.8c1.5,0,2.9-1.3,2.9-2.8
			c0-2.2-5.4-6.2-5.4-8.2C455.8,33.4,458.9,30.1,462.6,30.1z"/>
		<path fill="#878787" d="M473.8,40.6L473.8,40.6c2.4-3.3,7.2-10.6,12-10.6c3,0,3.7,2.4,3.7,4.9c0,4.6-5.1,15.8-10.5,15.8
			c-0.8,0-1.9-0.5-1.9-1.5c0-1.1,0.6-2.1,1.7-2.1c0.4,0,0.7,0.1,1,0.3c0.3,0.2,0.6,0.4,1,0.4c2.9,0,5.2-10.1,5.2-12.5
			c0-1.3-0.3-2.6-1.9-2.6c-3.3,0-7.4,6.3-10.2,11c-2,3.3-2.3,5.2-3,6.5c-0.2,0.4-0.6,0.4-0.9,0.4c-0.4,0-1.5-0.4-1.5-1.2
			c0-1,5.1-16.4,5.8-19.1c0.4-1.3,2.7-9.8,2.7-11c0-1.5-0.8-1.7-2.8-1.9l0.3-1c1.6-0.3,3.2-0.4,4.7-0.9c0.6-0.2,1.2-0.4,1.7-0.4
			c0.2,0,0.7,0,0.7,0.3c0,0.5-3,10.7-3.7,12.8L473.8,40.6z"/>
		<path fill="#878787" d="M505.3,30.1c2.5,0,5.1,0.8,5.1,3.7c0,5.2-8.5,6.7-12.5,6.8c-0.1,1-0.4,2-0.4,3c0,2.3,1.3,4.5,3.8,4.5
			c2.3,0,3.7-0.9,5.3-2.5c0.2,0,0.8,0.4,0.8,0.8c-1.8,2.7-4.5,4.4-7.7,4.4c-4.2,0-5.9-3-5.9-6.8C494,38.1,498.7,30.1,505.3,30.1z
			 M505.1,31.3c-3.6,0-6,5.3-6.9,8.3c3.1-0.3,9-1.7,9-5.9C507.3,32.4,506.6,31.3,505.1,31.3z"/>
		<path fill="#878787" d="M521,33.6c0,1.2-0.4,3-0.9,5.1h0.1c1.6-2.6,5-8.7,7.5-8.7c1.2,0,2.5,0.7,2.5,2c0,1.3-0.9,2.1-2.3,2.1
			c-0.4,0-0.8-0.2-1.1-0.4c-0.3-0.3-0.5-0.6-0.8-0.6c-1.5,0-5.1,7.5-6.1,9.7c-0.7,1.5-2.4,7.8-3.7,7.8c-0.6,0-1.8-0.3-1.8-0.9
			c0-0.4,1.1-3.4,2.3-7c0.8-2.6,1.7-5.3,1.7-6.8c0-1-0.2-2.5-1.8-2.5c-0.9,0-2,1.7-2.6,2.6c-0.3-0.1-0.8-0.4-0.9-0.6
			c0.8-1.8,3.1-5.6,5.2-5.6C520.3,30.1,521,32.2,521,33.6z"/>
		<path fill="#878787" d="M539.6,30.1c1.3,0,3.6,0.4,3.6,2.2c0,0.9-0.7,1.8-1.4,1.8c-1.4,0-1.4-2.2-3.6-2.2c-1.4,0-2.8,1.6-2.8,2.9
			c0,2,5.9,6.3,5.9,8.9c0,3.3-4,7.1-7.4,7.1c-2.1,0-4-0.3-4-2.8c0-0.9,0.8-1.6,1.5-1.6c1.4,0,1.5,1.8,3.8,1.8c1.5,0,2.9-1.3,2.9-2.8
			c0-2.2-5.4-6.2-5.4-8.2C532.8,33.4,535.9,30.1,539.6,30.1z"/>
	</g>
</g>
</svg>
